<?xml version="1.0" encoding="utf-8"?>
<!-- Generator: Adobe Illustrator 25.2.1, SVG Export Plug-In . SVG Version: 6.00 Build 0)  -->
<svg version="1.1" id="Layer_1" xmlns="http://www.w3.org/2000/svg" xmlns:xlink="http://www.w3.org/1999/xlink" x="0px" y="0px"
	 viewBox="0 0 1333.1 918.6" style="enable-background:new 0 0 1333.1 918.6;" xml:space="preserve">
<style type="text/css">
	.st0{fill:#F4F4F4;}
	.st1{fill:#FFFFFF;}
	.st2{opacity:0.15;enable-background:new    ;}
	.st3{fill:#21252B;}
	.st4{opacity:0.5;}
	.st5{opacity:0.5;enable-background:new    ;}
	.st6{opacity:0.3;enable-background:new    ;}
	.st7{fill:#FC9D9D;}
	.st8{opacity:0.3;}
	.st9{fill:#FA4B16;}
	.st10{fill:#3F4249;}
	.st11{opacity:0.15;}
	.st12{opacity:0.2;enable-background:new    ;}
	.st13{opacity:0.4;enable-background:new    ;}
	.st14{fill:#001B34;}
	.st15{fill:#61656D;}
	.st16{opacity:0.3;fill:#FFFFFF;enable-background:new    ;}
	.st17{opacity:0.3;fill:#263238;enable-background:new    ;}
	.st18{opacity:0.2;}
	.st19{fill:#B2B6BB;}
	.st20{opacity:0.5;fill:#FFFFFF;enable-background:new    ;}
	.st21{fill:#2E141C;}
	.st22{fill:#F95900;enable-background:new    ;}
	.st23{fill:#F7F9F8;}
	.st24{fill:#794200;}
	.st25{fill:#ABBBB5;}
	.st26{fill:#3A3A3A;}
	.st27{fill:#E98324;}
	.st28{opacity:0.6;enable-background:new    ;}
	.st29{opacity:0.6;}
	.st30{fill:#FA9B9B;}
	.st31{opacity:0.4;fill:#FFFFFF;enable-background:new    ;}
	.st32{opacity:0.7;}
	.st33{opacity:0.7;fill:#FFFFFF;enable-background:new    ;}
	.st34{opacity:0.2;fill:#FFFFFF;enable-background:new    ;}
	.st35{opacity:0.6;fill:#FFFFFF;enable-background:new    ;}
	.st36{fill-rule:evenodd;clip-rule:evenodd;fill:#FA4B16;}
	.st37{fill:#F69797;}
	.st38{opacity:0.3;fill:#61656D;enable-background:new    ;}
	.st39{opacity:0.4;}
	.st40{fill:#906363;}
	
		.st41{opacity:0.15;fill:none;stroke:#000000;stroke-width:0.8178;stroke-linecap:round;stroke-linejoin:round;stroke-miterlimit:10;enable-background:new    ;}
	.st42{fill:#AFB3B8;}
	.st43{fill:#F39494;}
	.st44{fill:#F59696;}
	.st45{fill:#868A91;}
	.st46{fill:#DADDDF;}
	.st47{fill:#353333;}
	.st48{font-family:'NotoSansLaoUI-SemiBold';}
	.st49{font-size:68.1847px;}
	.st50{fill:#F73F06;}
</style>
<path class="st0" d="M1224.1,851.1H117.4L63.3,337.2c-2-18.7,4.9-37.2,18.5-50.1L301.4,78.8c9.8-9.3,22.4-15,35.8-16.3L986.8,0.3
	c21.5-2.1,42.4,7.5,54.9,25l172.4,241.8c7.3,10.3,11.2,22.6,11.2,35.2L1224.1,851.1z"/>
<path class="st1" d="M1025.3,356.3c0.3-3,0.5-6,0.8-9.1C1025.9,350.3,1025.6,353.3,1025.3,356.3z"/>
<path class="st1" d="M1032,274.9c0.2-2.5,0.4-5,0.5-7.5C1032.4,269.9,1032.2,272.3,1032,274.9z"/>
<path class="st1" d="M1028.1,324.9c0.2-3,0.5-5.9,0.7-8.8C1028.6,319,1028.3,321.9,1028.1,324.9z"/>
<path class="st1" d="M1018.7,422.2c0.5-4.1,0.9-8.3,1.4-12.6C1019.6,413.9,1019.2,418.1,1018.7,422.2z"/>
<path class="st1" d="M1031.2,286.6c0.3-4,0.6-7.9,0.9-11.7C1031.8,278.7,1031.5,282.6,1031.2,286.6z"/>
<path class="st1" d="M1029.9,303.2c0.2-2.8,0.4-5.6,0.7-8.4C1030.3,297.5,1030.1,300.3,1029.9,303.2z"/>
<path class="st1" d="M1084.8,270.6c1.4-29.5-1.6-50.1-1.6-50.1h0.1l-3.2-1.4l-4.1,0.9l-27.8,6.2l-8.9-13l-3.8-0.4l3.2,0.4
	c0.4,15.5,8.8,109.2-7.8,228.8h53.8c-7.1-53.8-3.1-112.4-1.5-156.6L1084.8,270.6z"/>
<path class="st1" d="M1021,401c0.3-2.9,0.6-5.8,0.9-8.8C1021.6,395.2,1021.3,398.1,1021,401z"/>
<path class="st1" d="M1023.2,378.9c0.4-4.5,0.9-9,1.3-13.5C1024.1,369.9,1023.6,374.4,1023.2,378.9z"/>
<path class="st1" d="M1021.9,392.3c0.3-2.9,0.6-5.9,0.9-8.9C1022.5,386.3,1022.2,389.3,1021.9,392.3z"/>
<path class="st1" d="M1027.3,333.8c0.3-3,0.5-6,0.8-8.9C1027.8,327.8,1027.6,330.8,1027.3,333.8z"/>
<path class="st1" d="M1026.1,347.3c0.4-4.5,0.8-9,1.2-13.5C1026.9,338.2,1026.5,342.7,1026.1,347.3z"/>
<path class="st1" d="M1038.8,213.2l-3.2-0.4c0.1,5.7-1,26.5-3,54.5c-0.2,2.4-0.4,4.9-0.5,7.5c-0.3,3.8-0.6,7.7-0.9,11.7
	c-0.2,2.7-0.4,5.4-0.6,8.2c-0.2,2.8-0.4,5.5-0.7,8.4c-0.3,4.2-0.7,8.5-1,12.9c-0.2,2.9-0.5,5.8-0.7,8.8c-0.2,3-0.5,5.9-0.8,8.9
	c-0.4,4.5-0.8,9-1.2,13.5c-0.3,3-0.5,6-0.8,9.1c-0.3,3-0.6,6-0.8,9.1c-0.4,4.5-0.9,9-1.3,13.5c-0.1,1.5-0.3,3-0.4,4.5
	c-0.3,3-0.6,5.9-0.9,8.9c-0.3,2.9-0.6,5.9-0.9,8.8c-0.3,2.9-0.6,5.8-0.9,8.6c-0.5,4.3-0.9,8.5-1.4,12.6c-0.8,6.9-1.5,13.5-2.3,19.8
	h14.6C1047.6,322.5,1039.2,228.7,1038.8,213.2z"/>
<path class="st2" d="M1036.1,223.4l-0.5-10.5c0.1,5.7-1,26.5-3,54.5c-0.2,2.4-0.4,4.9-0.5,7.5c-0.3,3.8-0.6,7.7-0.9,11.7
	c-0.2,2.7-0.4,5.4-0.6,8.2c-0.2,2.8-0.4,5.5-0.7,8.4c-0.3,4.2-0.7,8.5-1,12.9c-0.2,2.9-0.5,5.8-0.7,8.8c-0.2,3-0.5,5.9-0.8,8.9
	c-0.4,4.5-0.8,9-1.2,13.5c-0.3,3-0.5,6-0.8,9.1c-0.3,3-0.6,6-0.8,9.1c-0.4,4.5-0.9,9-1.3,13.5c-0.1,1.5-0.3,3-0.4,4.5
	c-0.3,3-0.6,5.9-0.9,8.9c-0.3,2.9-0.6,5.9-0.9,8.8c-0.3,2.9-0.6,5.8-0.9,8.6c-0.5,4.3-0.9,8.5-1.4,12.6c-0.8,6.9-1.5,13.5-2.3,19.8
	h14.6C1047.6,322.5,1036.5,238.8,1036.1,223.4z"/>
<path class="st3" d="M985.2,442l8.4,356.4h33.5l18.7-310c0.2-3.6,3.2-6.4,6.8-6.4s6.6,2.8,6.8,6.5l17,309.9h33.5l10.3-356.4H985.2z"
	/>
<g class="st4">
	<path class="st5" d="M985.2,442l-1.1,10.6h135.7l0.4-10.6H985.2z"/>
</g>
<path class="st6" d="M994.5,442l-1.6,36.4h22c5.8,0,11-4,12-9.7c1.5-9,2.8-17.9,4.1-26.6L994.5,442L994.5,442z"/>
<path class="st7" d="M997.1,819.4l-0.9-29.2h28.4l-1.3,30.1L997.1,819.4z"/>
<path class="st2" d="M1024.3,798.4l-0.9,21.9l-6.8-0.2l0.2-12.9c0-2.1-1.4-3.9-3.4-4.4l-17-4.4H1024.3z"/>
<path class="st7" d="M1106.1,819.4l0.9-29.2h-28.5l1.3,30.1L1106.1,819.4z"/>
<path class="st7" d="M1035.5,174.3l0.3,41.2c0,1,0.3,2,0.9,2.8l0.4,0.7c10,14.9,30.6,17.8,44.4,6.4c1.4-1.2,2.1-3,1.8-4.8l-7.5-49.6
	L1035.5,174.3z"/>
<path class="st7" d="M1080.2,153.9c0,0,8.2,54.2-21.7,56.4c-29.2,2.2-30.1-52.6-30.1-52.6l-0.8-15.7l37.6-6.6l9.5,4.9L1080.2,153.9z
	"/>
<path class="st2" d="M1080.9,205.8l-2.2-14.9c-2.7,9.6-8.3,17.6-18.1,19.2h0.1c-0.7,0.1-1.4,0.2-2.1,0.3c-7.8,0.6-14.3-3-19.2-10.7
	c-0.2-0.3-0.6-0.4-0.9-0.2c-0.3,0.2-0.4,0.6-0.2,0.9c5.2,8.2,12.1,12,20.4,11.4c1.8-0.1,3.5-0.5,5.1-1
	C1069.1,211.4,1075.2,210.1,1080.9,205.8z"/>
<path class="st3" d="M1073.1,141.8c0,0,9.5-6.3,14,4.5c3.8,9.1-2.6,19-2.6,19l-5.5-0.6c-2.3-0.1-3.9-1.2-4.1-3.4L1073.1,141.8z"/>
<path class="st3" d="M1079.9,135.2c0.8,10.3-8,13-11.6,13.3l-29.5,2.5c-2.4,0.2-4.2,2.3-4.1,4.7l0.5,9.4c0.1,1.3-0.8,2.4-2.1,2.6
	l-1.8,0.2l-2,2.5c-11.6-2.8-16.4-35.7,4.9-42.3c2.2-0.7,4.3-2.4,5.3-4.5c3.1-6.4,15.8-8.1,22.2-0.9c1.4,1.6,3,2.2,5.1,2.2
	C1074.5,124.7,1079.5,129.5,1079.9,135.2z"/>
<path class="st7" d="M1031.4,171.1c-0.4-3.8-4.9-5.8-7.9-3.3l-0.1,0.1c-5.1,4.4-1.8,18.2,9.4,17L1031.4,171.1z"/>
<path class="st7" d="M1087.1,163.8L1087.1,163.8c-3.4-2.1-7.5,0.5-7.4,4.3l0.6,13.2C1091.6,180.9,1092.7,167.4,1087.1,163.8z"/>
<path class="st3" d="M1032.8,172.8c0.1,0.7-0.5,1.3-1.2,1.4c-0.7,0.1-1.4-0.4-1.5-1l-1.3-8.9l3.7,0.1L1032.8,172.8z"/>
<path class="st3" d="M1082,169.2c0.1,0.7-0.5,1.3-1.2,1.4c-0.7,0.1-1.4-0.4-1.5-1l-1.3-8.9l3.7,0.1L1082,169.2z"/>
<path class="st7" d="M1068.5,149.8c-0.9,0.1-1.4,0-1.5,0c-0.3,0-0.6-0.3-0.6-0.7c0-0.3,0.3-0.6,0.7-0.6c0.1,0,6,0.3,8.5-3.6
	c0.2-0.3,0.6-0.4,0.9-0.2c0.3,0.2,0.4,0.6,0.2,0.9C1074.5,148.9,1070.6,149.7,1068.5,149.8z"/>
<path class="st3" d="M1046.3,178.8c1.4,0,2.6-1.2,2.6-2.6c0-1.4-1.2-2.6-2.6-2.6c-1.4,0-2.6,1.2-2.6,2.6
	C1043.7,177.6,1044.9,178.8,1046.3,178.8z"/>
<path class="st1" d="M1045.1,176.5c0.3,0,0.6-0.3,0.6-0.6c0-0.3-0.3-0.6-0.6-0.6s-0.6,0.3-0.6,0.6
	C1044.5,176.2,1044.8,176.5,1045.1,176.5z"/>
<path class="st3" d="M1066.3,177.3c1.4,0,2.6-1.2,2.6-2.6c0-1.4-1.2-2.6-2.6-2.6c-1.4,0-2.6,1.2-2.6,2.6
	C1063.7,176.1,1064.9,177.3,1066.3,177.3z"/>
<path class="st1" d="M1065.1,175.1c0.3,0,0.6-0.3,0.6-0.6s-0.3-0.6-0.6-0.6s-0.6,0.3-0.6,0.6S1064.8,175.1,1065.1,175.1z"/>
<g class="st8">
	<path class="st6" d="M1057.6,188.5l2.1-0.2c0.4,0,0.7-0.4,0.7-0.8s-0.4-0.7-0.8-0.7l-2.1,0.2c-0.9,0.1-1.6-0.6-1.7-1.5
		c-0.1-0.9,0.6-1.6,1.5-1.7c0.4,0,0.7-0.4,0.7-0.8s-0.4-0.7-0.8-0.7c-1.7,0.1-3,1.6-2.8,3.3C1054.4,187.4,1055.9,188.6,1057.6,188.5
		z"/>
</g>
<path class="st3" d="M1073.5,167.8l-11.3,0.6l-1.5,0.1l-9.9,0.6h-0.1l-12.7,0.7c-2.1,0.1-3.6,1.9-3.5,4l0.2,2.9
	c0.3,5.6,5.1,9.9,10.7,9.6c5.6-0.3,9.9-5.1,9.6-10.7l-0.2-2.9c0-0.8-0.4-1.6-0.9-2.2l3.9-0.2c-0.4,0.7-0.7,1.4-0.6,2.3l0.2,2.9
	c0.3,5.6,5.1,9.9,10.7,9.6c5.6-0.3,9.9-5.1,9.6-10.7l-0.2-2.9C1077.4,169.2,1075.6,167.7,1073.5,167.8z M1053.3,172.7l0.2,2.9
	c0.3,4.8-3.4,8.9-8.1,9.1c-4.8,0.3-8.9-3.4-9.1-8.1l-0.2-2.9c-0.1-1.2,0.9-2.3,2.1-2.4l12.7-0.7h0.1
	C1052.2,170.5,1053.3,171.4,1053.3,172.7z M1076.2,174.3c0.3,4.8-3.4,8.9-8.1,9.1c-4.8,0.3-8.9-3.4-9.1-8.1l-0.2-2.9
	c-0.1-1.2,0.9-2.3,2.1-2.4l1.5-0.1l11.3-0.6c1.2-0.1,2.3,0.9,2.4,2.1L1076.2,174.3z"/>
<path class="st1" d="M1051.2,192.6l12.7-0.9c0.3,0,0.6,0.3,0.5,0.6c-1.8,6.5-10.7,7.2-13.5,1.1v-0.1
	C1050.7,193,1050.9,192.6,1051.2,192.6z"/>
<g class="st8">
	<path class="st6" d="M1028.6,178.3c-0.4,0-0.7-0.3-0.8-0.7l-0.2-1.6c-0.2-1.7-0.7-2.9-1.4-3.5c-0.6-0.5-1.2-0.4-1.2-0.4
		c-0.4,0.1-0.8-0.2-0.9-0.6s0.2-0.8,0.6-0.9c0.1,0,1.2-0.2,2.4,0.6c1.1,0.8,1.8,2.4,2,4.5l0.2,1.6
		C1029.3,177.8,1029,178.2,1028.6,178.3z"/>
</g>
<g class="st8">
	<path class="st6" d="M1083.6,174.2c0.4,0,0.7-0.4,0.7-0.8v-1.6c-0.1-1.7,0.2-2.9,0.9-3.6c0.5-0.6,1.1-0.6,1.2-0.6
		c0.4,0,0.7-0.3,0.8-0.7c0-0.4-0.3-0.7-0.7-0.8c-0.1,0-1.3,0-2.2,1c-1,1-1.4,2.6-1.3,4.8v1.6
		C1082.8,173.9,1083.1,174.2,1083.6,174.2z"/>
</g>
<path class="st9" d="M1023.3,845.8v-25.5c0-7.7-6.3-14-14-14h-0.6c-6.3,0-11.8,4.4-13,10.6c-0.7,3.7-2.4,7.1-4.8,9.9l-4,4.7
	c-3.4,4-5.3,9.1-5.3,14.3H1023.3z"/>
<path class="st1" d="M999.2,819.9c-0.2,0-0.4-0.1-0.5-0.3c-0.1-0.3-0.1-0.6,0.2-0.7c8.2-4.6,15.4,0,15.4,0c0.2,0.2,0.3,0.5,0.1,0.7
	c-0.2,0.2-0.5,0.3-0.7,0.1c-0.1,0-6.7-4.3-14.3,0C999.4,819.9,999.3,819.9,999.2,819.9z"/>
<path class="st1" d="M997.5,823.5c-0.2,0-0.4-0.1-0.5-0.3c-0.1-0.3-0.1-0.6,0.2-0.7c8.2-4.6,15.4,0,15.4,0c0.2,0.2,0.3,0.5,0.1,0.7
	c-0.2,0.2-0.5,0.3-0.7,0.1c-0.1,0-6.7-4.3-14.3,0C997.7,823.5,997.6,823.5,997.5,823.5z"/>
<path class="st1" d="M995.7,827.3c-0.2,0-0.4-0.1-0.5-0.3c-0.1-0.3-0.1-0.6,0.2-0.7c8.2-4.6,15.4,0,15.4,0c0.2,0.2,0.3,0.5,0.1,0.7
	c-0.2,0.2-0.5,0.3-0.7,0.1c-0.1,0-6.7-4.3-14.3,0C995.8,827.3,995.7,827.3,995.7,827.3z"/>
<path class="st10" d="M983.4,851.1h38.1c1,0,1.8-0.8,1.8-1.8v-3.4h-41.7v3.4C981.6,850.3,982.4,851.1,983.4,851.1z"/>
<path class="st9" d="M992.9,798.4l-0.3-11.6h36l-0.7,11.6H992.9z"/>
<path class="st9" d="M1028.6,786.8l-0.7,11.6h-35l-0.3-11.6H1028.6z"/>
<path class="st9" d="M1155.3,267.2c-2.4-10.8-9.8-19.8-19.9-24.2l-52.1-22.6h-0.1c0,0,0.1,0.5,0,1.6c0,0.4-0.2,1-0.3,1.6
	c-0.6,6.7-1.9,23.2-2.9,45.5c-0.2,4.4-0.4,9.1-0.6,14c-1.5,42-1.7,131.7,4.3,186.7c0.5,4.8,4.6,8.3,9.3,8.3h27l1.6-75.7l1.6-76.8
	l1.3,4.7l42.2-9.9L1155.3,267.2z"/>
<g class="st11">
	<path class="st2" d="M1138.7,259.6l14.9,64.2l13.5-3.2l-11.7-53.4c-2.4-10.8-9.8-19.8-19.9-24.2l-11.9-5.2
		C1131.2,242.8,1136.7,250.6,1138.7,259.6z"/>
	<path class="st2" d="M1111.7,291.5L1099,478.4h21.2l3.3-152.5l-9.7-34.6C1113.5,290.1,1111.8,290.3,1111.7,291.5z"/>
</g>
<path class="st9" d="M1035.6,212.9l-34.4-3.9c-12.5-1.4-25.2,0.9-36.3,6.7l-46.5,23.9l30.7,32.6l28.3-6.2l1.6,12.4
	c6.6,49.8,8.8,100.1,6.5,150.4l-2.2,49.7h22c5.8,0,10.8-4,12-9.7C1036.4,378.6,1036,228.3,1035.6,212.9z"/>
<path class="st7" d="M1175.6,359.7l-8.5-39.1l-42.2,9.9l8.4,24.7l-70.6,15.7l-3.9,0.8c-1.3,0.3-2.5,0.4-3.4-0.5l-1.5-1.5
	c-1.4-1.1-3-2-4.8-2.5c-4.2-1.2-7.7-4.1-9.8-7.8l-3.4-6c-0.2-0.3-0.5-0.4-0.8-0.2l-0.6,0.2c-2.5,0.9-3.7,3.6-3,6.1l2.6,8.2
	c0.3,0.9-0.2,1.9-1.1,2.2l-16.6,6.8c-3.5,1.3-2.3,6.1,0.9,5.3c1.7-0.4,2.1-0.5,2.1-0.5l-3.3,1.7c-3.7,1.8-2,6.8,1.2,6.1
	c3.1-0.7,7.4-1.8,7.4-1.8l-4.1,1.6c-3,1.4-1.8,6.6,2.3,5.6c2.4-0.6,6.2-1.8,6.2-1.8l-2.5,1.2c-3.2,1-2.1,6,0.9,5.4
	c2.6-0.5,27-6.5,39.6-8.8l93.5-10.2C1170.8,379.6,1177.8,369.8,1175.6,359.7z"/>
<path class="st7" d="M918.3,239.5l-46.8,24.6c-15.6,8.2-9.8,31.8,7.9,31.8h89.3l17.3-18.2l-38.2-5.4l2.2-0.5"/>
<path class="st7" d="M970.1,283.2l11.7-6l27.6,3.9c2.3,0.4,4.4,1.5,5.9,3.2l6.1,7.6c1.5,1.7,2.6,3.7,3,6l2.9,12.1
	c0.2,1.4,0,2.7-1.3,3c-1.3,0.3-2.5-0.3-3-1.6l-4.4-12.4l-7.8-8.6l7.1,11.3l4,15.7c0.3,1.3-0.4,2.7-1.6,3.2c-1.5,0.6-3.2-0.2-3.7-1.7
	c-1.3-4.1-3.4-11.1-3.4-11.1l-8.4-13.1l8.4,13.1l3.7,7.9c0.6,1.2,0.1,2.7-1.1,3.3c-1.2,0.7-2.8,0.3-3.5-0.8
	c-1.9-2.9-5.9-8.2-5.9-8.2l-7.7-10.2l8.3,12.5c0.5,0.8,0.3,1.9-0.4,2.5c-0.7,0.6-1.8,0.5-2.4-0.2l-7.6-8.2c-1.1-1.1-2.5-1.9-4-2.3
	c-5.4-1.2-10.4-3.8-14.5-7.6l-0.6-0.6h-8.9L970.1,283.2z"/>
<path class="st9" d="M1035.5,245.1l0.2-38.1l-7.3,5.1l-14.8,37L1035.5,245.1z"/>
<path class="st2" d="M1014.5,248.4l13.9-36.3l-1.3-0.2l-14.4,37.9l22.6,1.9l0.2-6.6L1014.5,248.4z"/>
<path class="st9" d="M1082.3,213.7l7.7,9.7l8.7,37.3l-17.3-9.8l1.6-25.6l0.1-0.5c0.3-1.4,0.4-2.8,0.3-4.2L1082.3,213.7z"/>
<path class="st12" d="M1091.5,224l-1.6-0.6l8.4,36.7l-17-9.3l-0.6,7.6l19.2,3.6L1091.5,224z"/>
<path class="st2" d="M1160.6,380.9l-93.5,10.2c-12.6,2.3-37,8.3-39.6,8.8c-1.7,0.3-2.8-1.1-2.9-2.6c0,0,0.7,1.2,2.6,0.6
	c1-0.3,16-5.8,25.5-9.4c5.1-1.9,10.4-3.3,15.8-4.2c20.4-3.4,73.5-12.4,87.8-15.6c4.2-0.9,6.8-5.1,5.8-9.2l-8.2-35.6l13.3-3.1
	l8.5,39.1C1177.8,369.8,1170.8,379.6,1160.6,380.9z"/>
<path class="st9" d="M1153.7,323.8l13.3-3.1L1153.7,323.8z"/>
<path class="st2" d="M939.1,260.8l10.9,11.1l27.4-6l-2-11.4c-0.5-2.9-3.5-4.7-6.3-3.7L939.1,260.8z"/>
<path class="st2" d="M950,271.9l-10.9-11.1l-18.7,6.2l-19.9-2.9c-0.3-0.1-0.6,0.2-0.7,0.5c0,0.3,0.2,0.6,0.5,0.7l34,4.9l13.5,2.2
	L950,271.9z"/>
<g class="st11">
	<path class="st2" d="M1004.3,314.6c0.6,0.7,1.7,0.8,2.4,0.2c0.8-0.6,1-1.7,0.4-2.5l-7.7-11.5c-0.9,0.5-1.3,1.8-2.1,2.2
		c-1.2,0.6-2.6,0.3-3.4,0.6c-0.8,0.3-1.3,0.5-1.3,0.5c1.5,0.3,2.9,1.1,4,2.3L1004.3,314.6z"/>
	<path class="st2" d="M1021.9,317.5l-4-15.7l-7.1-11.3l7.8,8.6l4.5,12.4c0.5,1.3,1.7,2,3,1.6c1.2-0.3,1.5-1.6,1.3-3l-2.9-12.1
		c-0.4-2.2-1.5-4.3-3-6l-6.1-7.6c-0.5-0.6-1.1-1-1.7-1.5c0,1.8,0.2,3.1-0.4,4.4c-0.5,1.2-1.5,2.1-2.6,3.2c-1,1-0.8,3-1.7,4
		c-0.5,0.6-2.5,1.1-3.1,1.6c-1.3,1-1.6,2.6-2.6,3.3c-1,0.8-2.5,0.7-3.7,1.4l7,9.2c0,0,3.9,5.3,5.9,8.2c0.8,1.2,2.3,1.5,3.5,0.8
		c0.2-0.1,0.4-0.3,0.6-0.5c0,0.1,0.1,0.3,0.1,0.4c0.5,1.5,2.2,2.3,3.7,1.7C1021.6,320.1,1022.2,318.8,1021.9,317.5z"/>
</g>
<g class="st11">
	<path class="st2" d="M1016.5,319.1c-0.1,0-0.3,0-0.4-0.1c-0.2-0.2-0.3-0.6-0.1-0.8c0.7-0.8,0.3-2.2,0.3-2.2l-4.4-9.2l-6.4-9.8
		c-0.2-0.3-0.1-0.6,0.2-0.8c0.3-0.2,0.6-0.1,0.8,0.2l6.5,9.8l4.4,9.4c0.1,0.2,0.7,2.1-0.5,3.4C1016.9,319,1016.7,319.1,1016.5,319.1
		z"/>
</g>
<path class="st13" d="M1052.6,482c-3.6,0-6.6,2.8-6.8,6.4l-18,298.4h-10.7l4.3-285c0.2-11,9.1-19.8,20.1-19.8H1052.6z"/>
<path class="st12" d="M1027.9,798.4l0.7-11.6h-11.5l-0.2,11.6H1027.9z"/>
<path class="st2" d="M1106.7,798.4l-0.6,21l-11.9,0.4l0.2-14.2c0-1.3-0.8-2.6-2.1-3l-13.4-4.3h27.8V798.4z"/>
<path class="st13" d="M1119.2,478.4l-9.3,320h-3.2l0.3-8.2h-12.4l4.4-311.8H1119.2z"/>
<path class="st9" d="M1079.8,845.8v-25.5c0-7.7,6.3-14,14-14h0.6c6.3,0,11.8,4.4,13,10.6c0.7,3.7,2.4,7.1,4.8,9.9l4,4.7
	c3.4,4,5.3,9.1,5.3,14.3H1079.8z"/>
<path class="st1" d="M1104,819.9c-0.1,0-0.2,0-0.3-0.1c-7.7-4.3-14.3-0.1-14.3,0c-0.2,0.2-0.6,0.1-0.7-0.1c-0.2-0.2-0.1-0.6,0.1-0.7
	c0.1,0,7.2-4.7,15.4,0c0.3,0.1,0.3,0.5,0.2,0.7C1104.3,819.8,1104.1,819.9,1104,819.9z"/>
<path class="st1" d="M1105.6,823.5c-0.1,0-0.2,0-0.3-0.1c-7.7-4.3-14.3-0.1-14.3,0c-0.2,0.2-0.6,0.1-0.7-0.1
	c-0.2-0.2-0.1-0.6,0.1-0.7c0.1,0,7.2-4.7,15.4,0c0.3,0.1,0.3,0.5,0.2,0.7C1106,823.4,1105.8,823.5,1105.6,823.5z"/>
<path class="st1" d="M1107.5,827.3c-0.1,0-0.2,0-0.3-0.1c-7.7-4.3-14.3-0.1-14.3,0c-0.2,0.2-0.6,0.1-0.7-0.1
	c-0.2-0.2-0.1-0.6,0.1-0.7c0.1,0,7.2-4.7,15.4,0c0.3,0.1,0.3,0.5,0.2,0.7C1107.8,827.2,1107.7,827.3,1107.5,827.3z"/>
<path class="st10" d="M1119.7,851.1h-38.1c-1,0-1.8-0.8-1.8-1.8v-3.4h41.8v3.4C1121.6,850.3,1120.7,851.1,1119.7,851.1z"/>
<path class="st9" d="M1074.9,786.8l0.7,11.6h35l0.2-11.6H1074.9z"/>
<path class="st12" d="M1094.6,786.8v11.6h16l0.2-11.6H1094.6z"/>
<path class="st14" d="M1062.6,371.1l3.7,20l6.3-0.7l-3.7-20.7L1062.6,371.1z"/>
<path class="st9" d="M1067.9,387.8c3.5,0,6.3-2.8,6.3-6.3c0-3.5-2.8-6.3-6.3-6.3c-3.5,0-6.3,2.8-6.3,6.3
	C1061.6,385,1064.4,387.8,1067.9,387.8z"/>
<path class="st1" d="M1067.9,386.8c2.9,0,5.3-2.4,5.3-5.3s-2.4-5.3-5.3-5.3c-2.9,0-5.3,2.4-5.3,5.3S1065,386.8,1067.9,386.8z"/>
<path class="st14" d="M1071.4,382l-3.6-0.2l-2.6-1.9c-0.1-0.1-0.2-0.3-0.1-0.4s0.3-0.2,0.4-0.1l2.4,1.8l3.4,0.2
	c0.2,0,0.3,0.1,0.3,0.3C1071.7,381.8,1071.6,382,1071.4,382z"/>
<path class="st3" d="M932.8,851.6h-49c-5.9,0-10.7-4.8-10.7-10.7V305.1c0-5.9,4.8-10.7,10.7-10.7h49c16.1,0,29.2,13.1,29.2,29.2
	v498.9C962,838.5,948.9,851.6,932.8,851.6z"/>
<path class="st15" d="M908.9,851.6H674.8c-17.3,0-31.4-14.1-31.4-31.4V325.7c0-17.3,14.1-31.4,31.4-31.4h234.1
	c17.3,0,31.4,14.1,31.4,31.4v494.4C940.3,837.5,926.3,851.6,908.9,851.6z"/>
<path class="st5" d="M823.1,311.6h-62.5c-1.2,0-2.2-1-2.2-2.2c0-1.2,1-2.2,2.2-2.2h62.5c1.2,0,2.2,1,2.2,2.2
	C825.3,310.6,824.4,311.6,823.1,311.6z"/>
<path class="st1" d="M885.5,390.4H688.8c-1,0-1.9-0.9-1.9-1.9v-12.2c0-1,0.9-1.9,1.9-1.9h196.7c1,0,1.9,0.9,1.9,1.9v12.2
	C887.4,389.5,886.6,390.4,885.5,390.4z"/>
<path class="st1" d="M862.2,424.5H712.1c-1,0-1.9-0.9-1.9-1.9v-12.2c0-1,0.9-1.9,1.9-1.9h150.1c1,0,1.9,0.9,1.9,1.9v12.2
	C864.1,423.6,863.3,424.5,862.2,424.5z"/>
<path class="st9" d="M838,753.9H736.3c-3.2,0-5.8-2.6-5.8-5.8v-16.6c0-3.2,2.6-5.8,5.8-5.8H838c3.2,0,5.8,2.6,5.8,5.8v16.6
	C843.9,751.3,841.2,753.9,838,753.9z"/>
<path class="st9" d="M800.5,494.8h-9.2v2c-7.5,3.5-12.7,11.1-12.7,19.9V670c0,8.8,5.2,16.4,12.7,19.9v2h9.2
	c12.1,0,21.9-9.8,21.9-21.9V516.7C822.4,504.6,812.6,494.8,800.5,494.8z"/>
<path class="st16" d="M800.5,494.8h-9.2v2c-7.5,3.5-12.7,11.1-12.7,19.9V670c0,8.8,5.2,16.4,12.7,19.9v2h9.2
	c12.1,0,21.9-9.8,21.9-21.9V516.7C822.4,504.6,812.6,494.8,800.5,494.8z"/>
<path class="st1" d="M791.2,691.9c-12.1,0-21.9-9.8-21.9-21.9V516.7c0-12.1,9.8-21.9,21.9-21.9c12.1,0,21.9,9.8,21.9,21.9V670
	C813.1,682.1,803.3,691.9,791.2,691.9z"/>
<path class="st10" d="M791.2,681.1c-6.6,0-11.9-5.3-11.9-11.9V517.6c0-6.6,5.3-11.9,11.9-11.9c6.6,0,11.9,5.3,11.9,11.9v151.6
	C803.2,675.7,797.8,681.1,791.2,681.1z"/>
<path class="st17" d="M803.2,516.1h-9.8v154.4h9.8V516.1z"/>
<path class="st10" d="M567.3,709.4c-1.4,0-2.9-0.1-4.4-0.2c-2.9-0.2-5.1-2.8-4.8-5.7c0.2-2.9,2.8-5,5.7-4.8
	c5.8,0.5,11.3-0.3,15.7-2.1c-5.9-4.5-10.2-10.5-11.8-16.9c-3.2-12.4,2.9-21.2,10.6-23.4c7.5-2.1,17.4,1.6,21.6,15
	c2.5,8,2,15.7-1.4,22.1c5.4,0.8,11.5,0.3,17.9-1.6c2.8-0.8,5.7,0.8,6.6,3.6c0.8,2.8-0.8,5.7-3.6,6.6c-12.1,3.6-21.7,2.7-28.7,0.5
	C584.6,706.9,576.4,709.4,567.3,709.4z M582.3,666.3c-0.4,0-0.7,0.1-1.1,0.1c-2.7,0.8-4.9,4.4-3.3,10.6c1,3.8,4.2,9.1,10.4,12.8
	c2.8-4.2,3.3-9.4,1.5-15.4C588,668.7,584.8,666.3,582.3,666.3z"/>
<g class="st4">
	<path class="st5" d="M567.3,709.4c-1.4,0-2.9-0.1-4.4-0.2c-2.9-0.2-5.1-2.8-4.8-5.7c0.2-2.9,2.8-5,5.7-4.8
		c5.8,0.5,11.3-0.3,15.7-2.1c-5.9-4.5-10.2-10.5-11.8-16.9c-3.2-12.4,2.9-21.2,10.6-23.4c7.5-2.1,17.4,1.6,21.6,15
		c2.5,8,2,15.7-1.4,22.1c5.4,0.8,11.5,0.3,17.9-1.6c2.8-0.8,5.7,0.8,6.6,3.6c0.8,2.8-0.8,5.7-3.6,6.6c-12.1,3.6-21.7,2.7-28.7,0.5
		C584.6,706.9,576.4,709.4,567.3,709.4z M582.3,666.3c-0.4,0-0.7,0.1-1.1,0.1c-2.7,0.8-4.9,4.4-3.3,10.6c1,3.8,4.2,9.1,10.4,12.8
		c2.8-4.2,3.3-9.4,1.5-15.4C588,668.7,584.8,666.3,582.3,666.3z"/>
</g>
<g class="st18">
	<path class="st12" d="M204.5,632c-0.5,0-0.8-0.4-0.8-0.8c0.3-10.1,2-18.7,2-18.8c0.1-0.4,0.5-0.7,1-0.6c0.4,0.1,0.7,0.5,0.6,1
		c0,0.1-1.7,8.5-1.9,18.5C205.3,631.7,205,632,204.5,632z"/>
</g>
<path class="st19" d="M1239.4,852.7H96.4c-0.5,0-0.9-0.4-0.9-0.9s0.4-0.9,0.9-0.9h1143c0.5,0,0.9,0.4,0.9,0.9
	S1239.9,852.7,1239.4,852.7z"/>
<path class="st9" d="M600,602.7c-2.6-0.5-4.3-3-3.8-5.6c0.1-0.6-0.3-1.3-0.9-1.4c-0.6-0.1-1.3,0.3-1.4,0.9c-0.5,2.6-3,4.3-5.6,3.8
	c-0.6-0.1-1.3,0.3-1.4,0.9c-0.1,0.6,0.3,1.3,0.9,1.4c2.6,0.5,4.3,3,3.8,5.6c-0.1,0.6,0.3,1.3,0.9,1.4c0.6,0.1,1.3-0.3,1.4-0.9
	c0.5-2.6,3-4.3,5.6-3.8c0.6,0.1,1.3-0.3,1.4-0.9C601,603.5,600.6,602.9,600,602.7z"/>
<path class="st20" d="M600,602.7c-2.6-0.5-4.3-3-3.8-5.6c0.1-0.6-0.3-1.3-0.9-1.4c-0.6-0.1-1.3,0.3-1.4,0.9c-0.5,2.6-3,4.3-5.6,3.8
	c-0.6-0.1-1.3,0.3-1.4,0.9c-0.1,0.6,0.3,1.3,0.9,1.4c2.6,0.5,4.3,3,3.8,5.6c-0.1,0.6,0.3,1.3,0.9,1.4c0.6,0.1,1.3-0.3,1.4-0.9
	c0.5-2.6,3-4.3,5.6-3.8c0.6,0.1,1.3-0.3,1.4-0.9C601,603.5,600.6,602.9,600,602.7z"/>
<path class="st9" d="M471.6,458.7c-2.6-0.5-4.3-3-3.8-5.6c0.1-0.6-0.3-1.3-0.9-1.4c-0.6-0.1-1.3,0.3-1.4,0.9c-0.5,2.6-3,4.3-5.6,3.8
	c-0.6-0.1-1.3,0.3-1.4,0.9c-0.1,0.6,0.3,1.3,0.9,1.4c2.6,0.5,4.3,3,3.8,5.6c-0.1,0.6,0.3,1.3,0.9,1.4c0.6,0.1,1.3-0.3,1.4-0.9
	c0.5-2.6,3-4.3,5.6-3.8c0.6,0.1,1.3-0.3,1.4-0.9C472.7,459.4,472.3,458.8,471.6,458.7z"/>
<path class="st20" d="M471.6,458.7c-2.6-0.5-4.3-3-3.8-5.6c0.1-0.6-0.3-1.3-0.9-1.4c-0.6-0.1-1.3,0.3-1.4,0.9
	c-0.5,2.6-3,4.3-5.6,3.8c-0.6-0.1-1.3,0.3-1.4,0.9c-0.1,0.6,0.3,1.3,0.9,1.4c2.6,0.5,4.3,3,3.8,5.6c-0.1,0.6,0.3,1.3,0.9,1.4
	c0.6,0.1,1.3-0.3,1.4-0.9c0.5-2.6,3-4.3,5.6-3.8c0.6,0.1,1.3-0.3,1.4-0.9C472.7,459.4,472.3,458.8,471.6,458.7z"/>
<path class="st9" d="M752.8,482c-2.6-0.5-4.3-3-3.8-5.6c0.1-0.6-0.3-1.3-0.9-1.4s-1.3,0.3-1.4,0.9c-0.5,2.6-3,4.3-5.6,3.8
	c-0.6-0.1-1.3,0.3-1.4,0.9c-0.1,0.6,0.3,1.3,0.9,1.4c2.6,0.5,4.3,3,3.8,5.6c-0.1,0.6,0.3,1.3,0.9,1.4c0.6,0.1,1.3-0.3,1.4-0.9
	c0.5-2.6,3-4.3,5.6-3.8c0.6,0.1,1.3-0.3,1.4-0.9C753.8,482.8,753.5,482.1,752.8,482z"/>
<path class="st9" d="M350.2,532.6c-2.6-0.5-4.3-3-3.8-5.6c0.1-0.6-0.3-1.3-0.9-1.4c-0.6-0.1-1.3,0.3-1.4,0.9c-0.5,2.6-3,4.3-5.6,3.8
	c-0.6-0.1-1.3,0.3-1.4,0.9c-0.1,0.6,0.3,1.3,0.9,1.4c2.6,0.5,4.3,3,3.8,5.6c-0.1,0.6,0.3,1.3,0.9,1.4c0.6,0.1,1.3-0.3,1.4-0.9
	c0.5-2.6,3-4.3,5.6-3.8c0.6,0.1,1.3-0.3,1.4-0.9C351.3,533.4,350.9,532.7,350.2,532.6z"/>
<path class="st9" d="M448.7,583.8c1.5,0,2.7-1.2,2.7-2.7c0-1.5-1.2-2.7-2.7-2.7s-2.7,1.2-2.7,2.7C446,582.6,447.2,583.8,448.7,583.8
	z"/>
<path class="st9" d="M689.6,566.6c1.5,0,2.7-1.2,2.7-2.7c0-1.5-1.2-2.7-2.7-2.7s-2.7,1.2-2.7,2.7
	C686.9,565.4,688.1,566.6,689.6,566.6z"/>
<g>
	<g>
		<g>
			<path class="st21" d="M549,849h28.4c1.1,0,2-0.9,2-2v-25.6h-32.4V847C547,848.1,547.9,849,549,849z"/>
			<path class="st21" d="M377.8,849h-28.4c-1.1,0-2-0.9-2-2v-25.6h32.4V847C379.9,848.1,379,849,377.8,849z"/>
			<path class="st22" d="M583.3,761.6l-9.4-14.6c-0.8-1.2-1.3-2.4-1.6-3.7c-2.7-11.1-12.5-28.6-12.5-28.6c-2.9-16-14.1-32.1-21.1-41
				c-3.5-4.4-8.1-8-13.5-10.5c-4.8-2.3-10.1-3.6-15.5-3.9l-46.4-0.6l-46.4,0.6c-5.4,0.3-10.7,1.6-15.5,3.9
				c-5.4,2.5-10,6.1-13.5,10.5c-7,8.9-18.2,25-21.1,41c0,0-9.8,17.5-12.5,28.6c-0.3,1.3-0.8,2.5-1.6,3.7l-9.3,14.6
				c0,0-2.7,45.1,0,60.9l27.7,13.6l13.3-3.2c0,0,40.9,3.2,78.9,3.2s78.9-3.2,78.9-3.2l13.3,3.2l27.7-13.6
				C586,806.7,583.3,761.6,583.3,761.6z"/>
			<path class="st23" d="M362.4,728.4c0,0,8.6,8.2,24.4,16.3c0.9,0.4,1.6,1.1,2,1.9l5.8,11.1c1,1.9,0,4.2-2.2,5l-16.7,6
				c-1.3,0.4-2.7,0.3-3.8-0.3c-4.4-2.6-15.3-9.9-16.3-19.5C355.7,748.9,358,732.6,362.4,728.4z"/>
			<g>
				<g>
					<g>
						<path class="st24" d="M346.3,795.8l52.3,20.1l-15.6,7.5l-35.4-7.7C347.6,815.6,343.4,808.1,346.3,795.8z"/>
					</g>
					<g>
						<path class="st25" d="M359.4,800.7c-5.3,0-9.6,3.9-9.6,8.6c0,3.3,2.2,6.3,5.3,7.7l4.3,0.9c0,0,0,0,0.1,0
							c5.3,0,9.6-3.9,9.6-8.6c0-2.4-1.1-4.5-2.8-6.1l-6.5-2.5C359.6,800.7,359.5,800.7,359.4,800.7z"/>
					</g>
				</g>
			</g>
			<path class="st26" d="M528.5,668.9h-65h-65.1c0,0-25.5,25.9-24.5,46.9h89.5h89.5C554,694.8,528.5,668.9,528.5,668.9z"/>
			<path class="st1" d="M564.4,728.4c0,0-8.6,8.2-24.4,16.3c-0.9,0.4-1.6,1.1-2,1.9l-5.8,11.1c-1,1.9,0,4.2,2.2,5l16.7,6
				c1.3,0.4,2.7,0.3,3.8-0.3c4.4-2.6,15.3-9.9,16.3-19.5C571.2,748.9,568.9,732.6,564.4,728.4z"/>
			<path class="st24" d="M539.3,779.2l-75.9,3l-75.9-3c-2.4-0.1-4.6,1.4-4.9,3.5c-0.1,1,0.2,1.9,0.8,2.7l18.5,23
				c0.5,0.7,1.4,1.1,2.3,1.1l55.2,2.1c2.6,0.1,5.2,0.1,7.9,0l55.2-2.1c0.9,0,1.8-0.4,2.3-1.1l18.5-23c0.6-0.8,0.9-1.7,0.8-2.7
				C543.9,780.6,541.7,779.1,539.3,779.2z"/>
			<path class="st24" d="M440,752.8l-43.5-5.4l8.3,16.4l27.7,4.5c20.4,3.3,41.3,3.3,61.7,0l27.7-4.5l8.3-16.4l-43.5,5.4
				C471.3,754.7,455.5,754.7,440,752.8z"/>
			<g>
				<g>
					<g>
						<path class="st24" d="M581.1,795.8l-52.3,20.1l15.6,7.5l35.4-7.7C579.8,815.6,583.9,808.1,581.1,795.8z"/>
					</g>
					<g>
						<path class="st25" d="M567.9,800.7c5.3,0,9.6,3.9,9.6,8.6c0,3.3-2.2,6.3-5.3,7.7L568,818c0,0,0,0-0.1,0
							c-5.3,0-9.6-3.9-9.6-8.6c0-2.4,1.1-4.5,2.8-6.1l6.5-2.5C567.8,800.7,567.8,800.7,567.9,800.7z"/>
					</g>
				</g>
			</g>
		</g>
		<g>
			<g>
				<g>
					<path class="st27" d="M556.1,713h6.7c0,0,0-8.9,2.4-8.9c2.4,0,12.1-0.2,20,7.9c7.9,8.1-27.1,6.3-27.1,6.3L556.1,713z"/>
				</g>
				<g>
					<path class="st27" d="M370.8,713h-6.7c0,0,0-8.9-2.4-8.9c-2.4,0-12.1-0.2-20,7.9c-7.9,8.1,27.1,6.3,27.1,6.3L370.8,713z"/>
				</g>
			</g>
		</g>
	</g>
</g>
<path class="st3" d="M280.7,381.5h45.8c0.4,0,0.7,0.3,0.7,0.7v1.2c0,0.4-0.3,0.7-0.7,0.7h-45.8c-0.4,0-0.7-0.3-0.7-0.7v-1.2
	C280,381.8,280.3,381.5,280.7,381.5z"/>
<path class="st28" d="M280.7,381.5h45.8c0.4,0,0.7,0.3,0.7,0.7v1.2c0,0.4-0.3,0.7-0.7,0.7h-45.8c-0.4,0-0.7-0.3-0.7-0.7v-1.2
	C280,381.8,280.3,381.5,280.7,381.5z"/>
<path class="st3" d="M312.9,381.5h79.8c0.4,0,0.7,0.3,0.7,0.7v1.2c0,0.4-0.3,0.7-0.7,0.7h-79.8c-0.4,0-0.7-0.3-0.7-0.7v-1.2
	C312.2,381.8,312.5,381.5,312.9,381.5z"/>
<g class="st29">
	<path class="st28" d="M392.7,381.9h-81.2c-0.1,0-0.2-0.1-0.2-0.2c0-0.1,0.1-0.2,0.2-0.2h81.2c0.1,0,0.2,0.1,0.2,0.2
		C393,381.8,392.8,381.9,392.7,381.9z"/>
</g>
<path class="st3" d="M379.6,381.4h12c0.9,0,1.7-0.6,1.9-1.6l10.1-53c0.2-1.2-0.7-2.3-1.9-2.3h-12c-0.9,0-1.7,0.6-1.9,1.6l-10.1,53
	C377.5,380.4,378.4,381.4,379.6,381.4z"/>
<path class="st28" d="M379.6,381.4h12c0.9,0,1.7-0.6,1.9-1.6l10.1-53c0.2-1.2-0.7-2.3-1.9-2.3h-12c-0.9,0-1.7,0.6-1.9,1.6l-10.1,53
	C377.5,380.4,378.4,381.4,379.6,381.4z"/>
<path class="st3" d="M313.1,381.4h77.2c0.9,0,1.7-0.6,1.9-1.6l10.1-53c0.2-1.2-0.7-2.3-1.9-2.3h-77.2c-0.9,0-1.7,0.6-1.9,1.6
	l-10.1,53C311.1,380.4,311.9,381.4,313.1,381.4z"/>
<path class="st1" d="M314.9,380.1h74.3c0.9,0,1.6-0.6,1.8-1.5l9.6-50.5c0.2-1.2-0.7-2.2-1.8-2.2h-74.2c-0.9,0-1.6,0.6-1.8,1.5
	l-9.6,50.5C312.9,379.1,313.8,380.1,314.9,380.1z"/>
<path class="st15" d="M400.3,329.4l0.3-1.6c0.2-1-0.6-1.9-1.6-1.9h-74.6c-0.8,0-1.6,0.6-1.7,1.4l-0.4,2H400.3z"/>
<path d="M325.6,327.8c-0.1,0.4-0.5,0.7-0.9,0.7c-0.4,0-0.7-0.3-0.6-0.7c0.1-0.4,0.5-0.7,0.9-0.7
	C325.5,327.1,325.7,327.4,325.6,327.8z"/>
<path d="M328.5,327.8c-0.1,0.4-0.5,0.7-0.9,0.7c-0.4,0-0.7-0.3-0.6-0.7c0.1-0.4,0.5-0.7,0.9-0.7
	C328.3,327.1,328.5,327.4,328.5,327.8z"/>
<path d="M331.3,327.8c-0.1,0.4-0.5,0.7-0.9,0.7c-0.4,0-0.7-0.3-0.6-0.7c0.1-0.4,0.5-0.7,0.9-0.7
	C331.1,327.1,331.4,327.4,331.3,327.8z"/>
<path class="st15" d="M314.9,380.1l74.4,0c0.9,0,1.6-0.6,1.7-1.4l0.6-3.5h-78l-0.6,2.9C312.9,379.1,313.7,380.1,314.9,380.1z"/>
<path d="M352.3,377.6c-0.2,0.7-1,1.4-1.8,1.4c-0.8,0-1.3-0.6-1.1-1.4c0.2-0.7,1-1.4,1.8-1.4C352,376.3,352.5,376.9,352.3,377.6z"/>
<path d="M358.5,377.6c-0.2,0.7-1,1.4-1.8,1.4c-0.8,0-1.3-0.6-1.1-1.4c0.2-0.7,1-1.4,1.8-1.4C358.2,376.3,358.7,376.9,358.5,377.6z"
	/>
<path d="M346.2,377.6c-0.2,0.7-1,1.4-1.8,1.4s-1.3-0.6-1.1-1.4c0.2-0.7,1-1.4,1.8-1.4C345.9,376.2,346.4,376.9,346.2,377.6z"/>
<path class="st9" d="M364.5,372.6h14c0.2,0,0.3-0.1,0.3-0.3l1.6-8.3c0-0.2-0.1-0.4-0.3-0.4h-14c-0.2,0-0.3,0.1-0.3,0.3l-1.6,8.3
	C364.1,372.4,364.3,372.6,364.5,372.6z"/>
<path class="st9" d="M323.8,372.6h14c0.2,0,0.3-0.1,0.3-0.3l1.6-8.3c0-0.2-0.1-0.4-0.3-0.4h-14c-0.2,0-0.3,0.1-0.3,0.3l-1.6,8.3
	C323.4,372.4,323.6,372.6,323.8,372.6z"/>
<path class="st9" d="M344.1,372.6h14c0.2,0,0.3-0.1,0.3-0.3l1.6-8.3c0-0.2-0.1-0.4-0.3-0.4h-14c-0.2,0-0.3,0.1-0.3,0.3l-1.6,8.3
	C343.8,372.4,343.9,372.6,344.1,372.6z"/>
<path class="st9" d="M332.6,361.3H376c0.5,0,1-0.4,1.1-0.9l4.9-25.9c0.1-0.7-0.4-1.3-1.1-1.3h-43.4c-0.5,0-1,0.4-1.1,0.9l-4.9,25.9
	C331.5,360.7,332,361.3,332.6,361.3z"/>
<g class="st4">
	<path class="st20" d="M332.6,361.3H376c0.5,0,1-0.4,1.1-0.9l4.9-25.9c0.1-0.7-0.4-1.3-1.1-1.3h-43.4c-0.5,0-1,0.4-1.1,0.9
		l-4.9,25.9C331.5,360.7,332,361.3,332.6,361.3z"/>
</g>
<path class="st9" d="M372,359.5l-1-2.8l4.1-2v-5c0-1.2-0.9-2.3-2.1-2.5l-11.9-1.4c-1-0.1-1.9,0.3-2.4,1.2l-3.6,6.2l2.9,0.9l0.2,7.2
	H372L372,359.5L372,359.5z"/>
<path class="st1" d="M357.8,351.3C357.8,351.3,357.8,351.3,357.8,351.3l0.5-0.4c0,0,0-0.1,0-0.1c0,0-0.1,0-0.1,0l-0.4,0.4
	C357.7,351.2,357.7,351.2,357.8,351.3C357.8,351.3,357.8,351.3,357.8,351.3z"/>
<path class="st1" d="M358.2,351.3C358.3,351.3,358.3,351.3,358.2,351.3c0.1,0,0.1-0.1,0.1-0.1l-0.4-0.4c0,0-0.1,0-0.1,0
	c0,0,0,0.1,0,0.1L358.2,351.3C358.2,351.3,358.2,351.3,358.2,351.3z"/>
<path class="st1" d="M362.9,348.9C362.9,348.9,363,348.8,362.9,348.9l0.5-0.4c0,0,0-0.1,0-0.1c0,0-0.1,0-0.1,0l-0.4,0.4
	C362.8,348.8,362.8,348.8,362.9,348.9C362.9,348.8,362.9,348.9,362.9,348.9z"/>
<path class="st1" d="M363.4,348.9C363.4,348.9,363.4,348.9,363.4,348.9c0.1,0,0.1-0.1,0.1-0.1l-0.4-0.4c0,0-0.1,0-0.1,0
	c0,0,0,0.1,0,0.1L363.4,348.9C363.3,348.9,363.3,348.9,363.4,348.9z"/>
<path class="st1" d="M366.9,350.8c0-0.3,0.2-0.5,0.5-0.5c0.3,0,0.5,0.2,0.5,0.5c0,0.3-0.2,0.5-0.5,0.5
	C367.2,351.3,366.9,351.1,366.9,350.8z M367.1,350.8c0,0.2,0.2,0.4,0.4,0.4c0.2,0,0.4-0.2,0.4-0.4c0-0.2-0.2-0.4-0.4-0.4
	C367.2,350.4,367.1,350.6,367.1,350.8z"/>
<path class="st1" d="M372.3,352C372.4,352,372.4,352,372.3,352c0.1-0.3,0.2-0.5,0.5-0.5s0.4,0.2,0.4,0.4c0,0,0,0.1,0.1,0.1
	c0,0,0.1,0,0.1-0.1c0-0.3-0.2-0.5-0.5-0.5C372.5,351.4,372.3,351.6,372.3,352C372.3,352,372.3,352,372.3,352z"/>
<path class="st1" d="M373,349.6l1-0.3c0,0,0.1-0.1,0-0.1c0,0-0.1-0.1-0.1,0l-1,0.3C372.9,349.5,372.9,349.6,373,349.6
	C372.9,349.6,373,349.6,373,349.6z"/>
<path class="st1" d="M363.5,350.8h1c0,0,0.1,0,0.1-0.1s0-0.1-0.1-0.1h-1C363.5,350.7,363.4,350.7,363.5,350.8
	C363.4,350.8,363.5,350.8,363.5,350.8z"/>
<path class="st1" d="M361.2,347.5C361.3,347.5,361.3,347.5,361.2,347.5c0.1,0,0.1-0.1,0-0.1l-0.7-0.7c0,0-0.1,0-0.1,0
	c0,0,0,0.1,0,0.1L361.2,347.5C361.2,347.5,361.2,347.5,361.2,347.5z"/>
<path class="st1" d="M366.3,351.2c0-0.3,0.2-0.5,0.5-0.5c0.3,0,0.5,0.2,0.5,0.5c0,0.3-0.2,0.5-0.5,0.5S366.3,351.4,366.3,351.2z
	 M366.3,351.2c0,0.2,0.2,0.4,0.4,0.4s0.4-0.2,0.4-0.4s-0.2-0.4-0.4-0.4S366.3,350.9,366.3,351.2z"/>
<path class="st1" d="M371.7,352.3L371.7,352.3c0-0.2,0.2-0.4,0.5-0.4c0.2,0,0.4,0.2,0.4,0.4h0c0-0.3-0.2-0.5-0.5-0.5
	C371.9,351.8,371.7,352.1,371.7,352.3z"/>
<path class="st1" d="M373.4,349.8l-1,0.3l0,0L373.4,349.8L373.4,349.8z"/>
<path class="st1" d="M363.9,351.1h-1v0L363.9,351.1L363.9,351.1z"/>
<path class="st1" d="M359.8,347.1L359.8,347.1l0.7,0.8l0,0L359.8,347.1z"/>
<path class="st1" d="M358.9,358.3c-0.1,0-0.1-0.1-0.1-0.2s0-0.1,0-0.2c0-0.1,0.1-0.1,0.2-0.1c0.1,0,0.1,0,0.2,0
	c0.1,0,0.1,0.1,0.1,0.2c0,0.1,0,0.1,0,0.2c0,0.1-0.1,0.1-0.2,0.1c0,0,0,0-0.1,0C359,358.3,358.9,358.3,358.9,358.3z M359,357.9
	C359,357.9,359,358,359,357.9c-0.1,0.1-0.1,0.1-0.1,0.1s0,0.1,0,0.1c0,0,0.1,0,0.1,0s0.1,0,0.1,0c0,0,0-0.1,0-0.1
	C359.1,358,359.1,358,359,357.9C359.1,357.9,359.1,357.9,359,357.9C359,357.9,359,357.9,359,357.9z"/>
<path class="st1" d="M370.9,348.9c-0.1,0-0.1-0.1-0.1-0.2c0-0.1,0-0.1,0-0.2c0-0.1,0.1-0.1,0.2-0.1c0.1,0,0.1,0,0.2,0
	c0.1,0,0.1,0.1,0.1,0.2s0,0.1,0,0.2c0,0.1-0.1,0.1-0.2,0.1c0,0,0,0-0.1,0C371,349,370.9,348.9,370.9,348.9z M371,348.6
	C371,348.6,370.9,348.6,371,348.6c-0.1,0.1-0.1,0.1-0.1,0.1c0,0,0,0.1,0,0.1c0,0,0.1,0,0.1,0c0,0,0.1,0,0.1,0c0,0,0-0.1,0-0.1
	C371.1,348.7,371.1,348.6,371,348.6C371,348.6,371,348.6,371,348.6C371,348.6,371,348.6,371,348.6z"/>
<path class="st1" d="M359.5,349.5c-0.1,0-0.1-0.1-0.1-0.2c0-0.1,0-0.1,0-0.2c0-0.1,0.1-0.1,0.2-0.1c0.1,0,0.1,0,0.2,0
	c0.1,0,0.1,0.1,0.1,0.2s0,0.1,0,0.2c0,0.1-0.1,0.1-0.2,0.1C359.6,349.5,359.6,349.5,359.5,349.5z M359.6,349.2
	C359.6,349.2,359.6,349.2,359.6,349.2c-0.1,0.1-0.1,0.1-0.1,0.1c0,0,0,0.1,0,0.1c0,0,0.1,0,0.2,0c0,0,0-0.1,0-0.1
	C359.8,349.2,359.7,349.2,359.6,349.2C359.7,349.2,359.7,349.2,359.6,349.2C359.6,349.2,359.6,349.2,359.6,349.2z"/>
<path class="st30" d="M365,341.4c0,0,4-2.5,4.2,0.6l0.1,0.8l0.3,4l0,0c0,0.1,0,0.2-0.1,0.3l-2.3,1.6c-0.1,0-0.2,0-0.2,0l-1.7-1.5
	c-0.1-0.1-0.2-0.3-0.2-0.4l0.1-0.6l0.2-1.8c0-0.2-0.1-0.4-0.1-0.7C365.1,342.5,365,341.4,365,341.4z"/>
<path class="st10" d="M364.6,341.5c0.8,0,1.4-0.6,1.4-1.4c0-0.8-0.6-1.4-1.4-1.4c-0.8,0-1.4,0.6-1.4,1.4
	C363.2,340.9,363.9,341.5,364.6,341.5z"/>
<path class="st30" d="M364.5,339.2c0,0-1.4,6,1.7,6.4c2.7,0.4,3-3.8,3-3.8l-0.1-2.7L364.5,339.2z"/>
<path class="st10" d="M364.7,339.5l2.7,0.2c0.3,0,0.6,0.3,0.6,0.7c0,0.3,0.2,0.6,0.6,0.7c0.1,0,0.2,0.1,0.2,0.2l0,0.6
	c0,0.1,0,0.1,0.1,0.1c0.1,0,0.1,0,0.1-0.1l0.1-0.6l0.1-0.2l0.6,0.4c0,0,1-1.6,0.5-3.1c-0.3-0.8-1.1-1.1-1.5-1.2
	c-0.1,0-0.2-0.1-0.3-0.2c-0.2-0.3-0.5-0.7-1.4-0.7c-0.7,0-1,0.4-1.2,0.7c-0.1,0.2-0.3,0.2-0.5,0.1c-0.3-0.1-0.7-0.2-1.2,0.1
	C363.4,337.9,363.7,339.4,364.7,339.5z"/>
<path class="st2" d="M369.2,342.9c0,0-0.3,0-0.4-0.1l0.4,0.7L369.2,342.9z"/>
<path class="st30" d="M369.1,341.3c0,0,0.2-0.6,0.8-0.3c0.7,0.3,0.5,1.8-0.6,1.9c-0.6,0-0.5-0.3-0.4-0.8
	C369.1,341.3,369.1,341.3,369.1,341.3z"/>
<path class="st30" d="M364.7,339.7l0.3,0c0,0,0.1,0,0.1-0.1s0-0.1-0.1-0.1l-0.3,0c0,0-0.1,0-0.1,0c-0.1,0-0.2-0.1-0.4-0.2
	c0,0-0.1,0-0.1,0c0,0,0,0.1,0,0.1c0.1,0.1,0.3,0.2,0.4,0.2C364.6,339.7,364.6,339.7,364.7,339.7z"/>
<path class="st2" d="M365,346.1l0.1-1c0.3,0.3,1,0.6,1.8,0.4c0,0,0,0,0,0c0.5-0.1,0.9-0.4,1.1-0.7c0,0,0.1,0,0.1,0c0,0,0,0.1,0,0.1
	c-0.3,0.3-0.7,0.7-1.4,0.8C365.8,346.3,365,346.1,365,346.1z"/>
<path class="st3" d="M363.7,341.7v0.3c0,0.5,0.4,1,1,1s1-0.4,1-1v-0.3c0-0.1,0-0.2-0.1-0.2h0.4c0,0.1-0.1,0.1-0.1,0.2v0.3
	c0,0.5,0.4,1,1,1c0.5,0,1-0.4,1-1v-0.3c0-0.2-0.2-0.4-0.4-0.4h-1.2h0h-0.9h-0.1h-1.1C363.9,341.3,363.7,341.5,363.7,341.7z
	 M366.2,341.5L366.2,341.5h1.2c0.1,0,0.2,0.1,0.2,0.2v0.3c0,0.5-0.4,0.8-0.8,0.8s-0.8-0.4-0.8-0.8v-0.3
	C366,341.6,366.1,341.5,366.2,341.5z M363.8,341.7c0-0.1,0.1-0.2,0.2-0.2h1.1h0.1c0.1,0,0.2,0.1,0.2,0.2v0.3c0,0.5-0.4,0.8-0.8,0.8
	c-0.5,0-0.8-0.4-0.8-0.8L363.8,341.7z"/>
<path class="st30" d="M375.2,354.6h-4.5l1.5,6.6h3L375.2,354.6z"/>
<path class="st30" d="M373,358l-1-1.3l-0.7-2.9c0-0.1-0.1-0.3-0.2-0.4c-0.1-0.2-0.2-0.2-0.4-0.3l-2.4-1.2c-0.2-0.1-0.3,0-0.4,0.1
	c-0.1,0.1,0,0.3,0.1,0.4l2,1.2l-1.8-0.6c-0.2-0.1-0.4,0.1-0.4,0.3c0,0.1,0.1,0.2,0.2,0.3l2.1,0.9l-1.6-0.7c-0.2-0.1-0.4,0.1-0.4,0.3
	c0,0.1,0.1,0.2,0.1,0.2l1.7,1.1l-1.1-0.7c-0.1-0.1-0.3,0-0.4,0.2c0,0.1,0,0.2,0.1,0.2l1,1l1.7,5.1h1.3C372.7,359.8,373,358,373,358z
	"/>
<path class="st30" d="M374.8,360.7l-1.6-2.1l-2.6,1.1l0.5,1.5h4C375,361,374.9,360.9,374.8,360.7z"/>
<path class="st2" d="M372,356.6l-0.7-2.9c-0.1-0.3-0.3-0.5-0.5-0.6l-0.3-0.1l0-0.2l0.6,0.3c0.3,0.1,0.5,0.4,0.5,0.7l0.7,2.9l2.9,3.7
	l0,1L372,356.6z"/>
<path class="st3" d="M368.1,351.9h-10.3l1.9,9.4H370L368.1,351.9z"/>
<path class="st30" d="M355.1,353.1l-2.5,4.1l4.1,0.7l1.8-3.8L355.1,353.1z"/>
<path class="st30" d="M356.3,355l0.6,0.4l1.4-1.1c0.3-0.1,0.5-0.1,0.8,0l2.6,0.8c0.2,0.1,0.3,0.2,0.2,0.4c0,0.2-0.2,0.3-0.4,0.2
	l-2.3-0.5l1.7,0.8c0.2,0.1,0.2,0.3,0.1,0.5c-0.1,0.1-0.2,0.1-0.3,0.1l-2.2-0.8l1.6,0.6c0.2,0.1,0.3,0.3,0.1,0.5
	c-0.1,0.1-0.2,0.1-0.3,0.1l-2.1-0.4l1.4,0.3c0.2,0,0.3,0.2,0.2,0.4c0,0.1-0.1,0.1-0.2,0.1l-1.4,0l-1.6,1.9c-0.7,0.9-2,1.1-3,0.5
	c0,0-0.1,0-0.1-0.1l-0.1,0C352.7,358.3,356.3,355,356.3,355z"/>
<path class="st30" d="M356.3,355l-2.3,1.2c-1,0.2-1.6,1-1.6,2c0.1,1.3,1.5,2.1,2.6,1.6l1.5-1.4L356.3,355z"/>
<path class="st2" d="M357,355.4l1.4-1L357,355l-3.5,0.8l-0.6,1L357,355.4z"/>
<path class="st3" d="M358.5,354.2l-0.2,0.1l-0.2-1l1,0.3L358.5,354.2z"/>
<path class="st3" d="M368.5,353.8l0.3-0.8l-0.4-0.3l-0.1,0.2L368.5,353.8z"/>
<path class="st3" d="M369.2,352.3l0.9-2.2c0.1-0.1,0-0.3-0.1-0.3c-0.1-0.1-0.3,0-0.4,0.1l-0.9,2.2L369.2,352.3z"/>
<g class="st11">
	<path class="st2" d="M369.9,354.6C369.9,354.6,369.9,354.6,369.9,354.6l-1.4-0.6c0,0-0.1-0.1,0-0.1s0.1-0.1,0.1,0l1.4,0.6
		C370,354.5,370,354.5,369.9,354.6C370,354.6,370,354.6,369.9,354.6z"/>
</g>
<path class="st2" d="M370,353.7l-1.2-0.4l-0.1,0.2L370,353.7z"/>
<g class="st11">
	<path class="st2" d="M369.8,355.5C369.8,355.5,369.8,355.5,369.8,355.5l-1.1-0.6c0,0-0.1-0.1,0-0.1c0,0,0.1-0.1,0.1,0l1,0.6
		C369.9,355.3,369.9,355.4,369.8,355.5C369.8,355.4,369.8,355.5,369.8,355.5z"/>
</g>
<g class="st11">
	<path class="st2" d="M357.9,356.6C358,356.5,358,356.5,357.9,356.6l1.2,0.2l0.3,0.1c0.1,0,0.2,0.1,0.2,0.2L357.9,356.6
		C358,356.7,357.9,356.6,357.9,356.6z"/>
</g>
<path class="st2" d="M358.6,355.9C358.6,355.9,358.6,355.9,358.6,355.9c0-0.1,0-0.1,0-0.1l0.8,0.3l-0.8-0.3l0.9,0.3l0.8,0.3
	c0.1,0,0.1,0.1,0.1,0.2c0,0,0,0,0,0L358.6,355.9z"/>
<path class="st2" d="M361.8,349.6l-1.4,2.2h0.8L361.8,349.6z"/>
<path class="st2" d="M370.5,353l-0.1-2.7l-0.7,2.3L370.5,353z"/>
<path class="st28" d="M365,346.2l-0.1,0.6c0,0.1,0,0.3,0.2,0.4l1.7,1.5c0.1,0,0.2,0.1,0.2,0l2.3-1.6c0.1-0.1,0.1-0.2,0.1-0.3l0,0
	l0.6,0.1l-0.1,0.3c0,0.1-0.1,0.2-0.1,0.2l-2.7,1.9c-0.1,0.1-0.3,0.1-0.5,0l-2.1-1.9c-0.1-0.1-0.1-0.2-0.1-0.3l0.1-0.8L365,346.2z"/>
<path class="st28" d="M375.2,354.6h-3.3l-0.1-0.5h3.5V354.6z"/>
<path class="st28" d="M355.1,353.1l0.3-0.5l2.7,0.8l0.1,0.7L355.1,353.1z"/>
<path class="st1" d="M340.6,341.2l0.7-3.6l10.7,0l-0.6,3.6H340.6z"/>
<path class="st15" d="M349.2,339h-3c-0.1,0-0.2-0.1-0.2-0.2c0-0.1,0.1-0.2,0.2-0.2h3c0.1,0,0.2,0.1,0.2,0.2
	C349.3,338.9,349.3,339,349.2,339z"/>
<path class="st9" d="M343.5,340.5c0.6,0,1.1-0.5,1.1-1.1c0-0.6-0.5-1.1-1.1-1.1c-0.6,0-1.1,0.5-1.1,1.1
	C342.4,340,342.9,340.5,343.5,340.5z"/>
<path class="st31" d="M343.5,340.5c0.6,0,1.1-0.5,1.1-1.1c0-0.6-0.5-1.1-1.1-1.1c-0.6,0-1.1,0.5-1.1,1.1
	C342.4,340,342.9,340.5,343.5,340.5z"/>
<path class="st1" d="M343.3,339.9l-0.4-0.4c0,0,0,0,0-0.1l0.1-0.1c0,0,0,0,0.1,0l0.2,0.2l0.6-0.6c0,0,0,0,0.1,0l0.1,0.1
	c0,0,0,0,0,0.1L343.3,339.9C343.4,339.9,343.4,339.9,343.3,339.9z"/>
<path class="st1" d="M339.5,346.9l0.7-3.6l11,0l-0.6,3.6L339.5,346.9z"/>
<path class="st15" d="M348.4,344.7h-3c-0.1,0-0.2-0.1-0.2-0.2c0-0.1,0.1-0.2,0.2-0.2h3c0.1,0,0.2,0.1,0.2,0.2
	C348.5,344.6,348.5,344.7,348.4,344.7z"/>
<path class="st9" d="M342.8,346.2c0.6,0,1.1-0.5,1.1-1.1c0-0.6-0.5-1.1-1.1-1.1c-0.6,0-1.1,0.5-1.1,1.1
	C341.6,345.7,342.1,346.2,342.8,346.2z"/>
<path class="st31" d="M342.8,346.2c0.6,0,1.1-0.5,1.1-1.1c0-0.6-0.5-1.1-1.1-1.1c-0.6,0-1.1,0.5-1.1,1.1
	C341.6,345.7,342.1,346.2,342.8,346.2z"/>
<path class="st1" d="M342.5,345.6l-0.4-0.4c0,0,0,0,0-0.1l0.1-0.1c0,0,0,0,0.1,0l0.2,0.2l0.6-0.6c0,0,0,0,0.1,0l0.1,0.1
	c0,0,0,0,0,0.1L342.5,345.6C342.6,345.6,342.6,345.6,342.5,345.6z"/>
<path class="st1" d="M338.4,352.6l0.7-3.6l10.7,0l-0.7,3.6L338.4,352.6z"/>
<path class="st15" d="M347.6,350.4h-3c-0.1,0-0.2-0.1-0.2-0.2s0.1-0.2,0.2-0.2h3c0.1,0,0.2,0.1,0.2,0.2
	C347.8,350.3,347.7,350.4,347.6,350.4z"/>
<path class="st9" d="M342,351.9c0.6,0,1.1-0.5,1.1-1.1c0-0.6-0.5-1.1-1.1-1.1c-0.6,0-1.1,0.5-1.1,1.1
	C340.9,351.4,341.4,351.9,342,351.9z"/>
<path class="st31" d="M342,351.9c0.6,0,1.1-0.5,1.1-1.1c0-0.6-0.5-1.1-1.1-1.1c-0.6,0-1.1,0.5-1.1,1.1
	C340.9,351.4,341.4,351.9,342,351.9z"/>
<path class="st1" d="M341.8,351.3l-0.4-0.4c0,0,0,0,0-0.1l0.1-0.1c0,0,0,0,0.1,0l0.2,0.2l0.6-0.6c0,0,0,0,0.1,0l0.1,0.1
	c0,0,0,0,0,0.1L341.8,351.3C341.8,351.3,341.8,351.3,341.8,351.3z"/>
<path class="st1" d="M337.3,358.3l0.8-3.6l10.7,0l-0.8,3.6L337.3,358.3z"/>
<path class="st15" d="M346.8,356.1h-3c-0.1,0-0.2-0.1-0.2-0.2c0-0.1,0.1-0.2,0.2-0.2h3c0.1,0,0.2,0.1,0.2,0.2
	C347,356,346.9,356.1,346.8,356.1z"/>
<path class="st9" d="M341.2,357.6c0.6,0,1.1-0.5,1.1-1.1c0-0.6-0.5-1.1-1.1-1.1s-1.1,0.5-1.1,1.1
	C340.1,357.1,340.6,357.6,341.2,357.6z"/>
<path class="st31" d="M341.2,357.6c0.6,0,1.1-0.5,1.1-1.1c0-0.6-0.5-1.1-1.1-1.1s-1.1,0.5-1.1,1.1
	C340.1,357.1,340.6,357.6,341.2,357.6z"/>
<path class="st1" d="M341,357l-0.4-0.4c0,0,0,0,0-0.1l0.1-0.1c0,0,0,0,0.1,0l0.2,0.2l0.6-0.6c0,0,0,0,0.1,0l0.1,0.1c0,0,0,0,0,0.1
	L341,357C341,357,341,357,341,357z"/>
<g class="st32">
	<path class="st33" d="M323.8,372.6h14c0.2,0,0.3-0.1,0.3-0.3l1.6-8.3c0-0.2-0.1-0.4-0.3-0.4h-14c-0.2,0-0.3,0.1-0.3,0.3l-1.6,8.3
		C323.4,372.4,323.6,372.6,323.8,372.6z"/>
</g>
<g class="st32">
	<path class="st33" d="M344.1,372.6h14c0.2,0,0.3-0.1,0.3-0.3l1.6-8.3c0-0.2-0.1-0.4-0.3-0.4h-14c-0.2,0-0.3,0.1-0.3,0.3l-1.6,8.3
		C343.8,372.4,343.9,372.6,344.1,372.6z"/>
</g>
<g class="st32">
	<path class="st33" d="M364.5,372.6h14c0.2,0,0.3-0.1,0.3-0.3l1.6-8.3c0-0.2-0.1-0.4-0.3-0.4h-14c-0.2,0-0.3,0.1-0.3,0.3l-1.6,8.3
		C364.1,372.4,364.3,372.6,364.5,372.6z"/>
</g>
<path class="st9" d="M508.1,228.6H414c-1.3,0-2.4-1.1-2.4-2.4v-58.7c0-1.3,1.1-2.4,2.4-2.4h94.1c1.3,0,2.4,1.1,2.4,2.4v58.7
	C510.5,227.5,509.4,228.6,508.1,228.6z"/>
<path d="M414,165.1h94.1c1.3,0,2.4,1.1,2.4,2.4v3.8h-98.9v-3.8C411.6,166.2,412.7,165.1,414,165.1z"/>
<path class="st34" d="M508.1,228.6H414c-1.3,0-2.4-1.1-2.4-2.4v-58.7c0-1.3,1.1-2.4,2.4-2.4h94.1c1.3,0,2.4,1.1,2.4,2.4v58.7
	C510.5,227.5,509.4,228.6,508.1,228.6z"/>
<path class="st9" d="M506.5,228.6h-94.1c-1.3,0-2.4-1.1-2.4-2.4v-58.7c0-1.3,1.1-2.4,2.4-2.4h94.1c1.3,0,2.4,1.1,2.4,2.4v58.7
	C508.9,227.5,507.8,228.6,506.5,228.6z"/>
<g class="st29">
	<g class="st29">
		<g class="st29">
			<g class="st29">
				<path class="st35" d="M506.5,228.6h-94.1c-1.3,0-2.4-1.1-2.4-2.4v-58.7c0-1.3,1.1-2.4,2.4-2.4h94.1c1.3,0,2.4,1.1,2.4,2.4v58.7
					C508.9,227.5,507.8,228.6,506.5,228.6z"/>
			</g>
		</g>
	</g>
</g>
<path class="st10" d="M412.4,165.1h94.1c1.3,0,2.4,1.1,2.4,2.4v3.8H410v-3.8C410,166.2,411.1,165.1,412.4,165.1z"/>
<path d="M415.2,168.2c0,0.6-0.5,1-1,1c-0.6,0-1-0.5-1-1s0.5-1,1-1C414.8,167.2,415.2,167.6,415.2,168.2z"/>
<path d="M418.7,168.2c0,0.6-0.5,1-1,1c-0.6,0-1-0.5-1-1s0.5-1,1-1C418.2,167.2,418.7,167.6,418.7,168.2z"/>
<path d="M422.1,168.2c0,0.6-0.5,1-1,1s-1-0.5-1-1s0.5-1,1-1S422.1,167.6,422.1,168.2z"/>
<path class="st1" d="M414.2,168.5c0.2,0,0.3-0.1,0.3-0.3c0-0.2-0.1-0.3-0.3-0.3c-0.2,0-0.3,0.1-0.3,0.3
	C413.9,168.4,414,168.5,414.2,168.5z"/>
<path class="st36" d="M419.7,184.9v-3.5h18.1v3.5H419.7z"/>
<path class="st36" d="M419.7,190v-3.5h8.3v3.5H419.7z"/>
<path class="st36" d="M419.7,195.1v-3.5h5.8v3.5H419.7z"/>
<path class="st36" d="M419.7,179.8v-3.5h3.9v3.5H419.7z"/>
<path class="st10" d="M442,196.7h-24.1v-21.3c0-0.1,0.1-0.3,0.3-0.3c0.1,0,0.3,0.1,0.3,0.3v20.8H442c0.1,0,0.3,0.1,0.3,0.3
	C442.3,196.6,442.2,196.7,442,196.7z"/>
<path class="st3" d="M493.7,228.6l0.1-25.6c0-2.5-1.9-4.6-4.4-4.8l-17.3-1.4c0,0,0,0,0,0l-6.9,2.2c-2.5,0.8-4.9,3.8-4.7,7.2
	l1.1,22.4H493.7L493.7,228.6z"/>
<path class="st37" d="M473.7,196.3c-0.1-2.7,2-5.4,4.7-5.5c2.7-0.1,4.9,2.5,5,5.2c0,1-0.9,0.7-1.4,1.8c-0.8,1.9-2,5-3.7,5
	c-1.7,0-2.2-2.7-3.1-4.5C474.7,197.3,473.8,197.3,473.7,196.3z"/>
<path class="st3" d="M471.9,185.5c-1.4-0.1-2.4-1.2-2.4-2.5c0.1-1.4,1.2-2.4,2.5-2.4c0.1,0,0.3-0.1,0.3,0
	C471.7,182.7,472.4,185.5,471.9,185.5z"/>
<path class="st37" d="M473.4,184.8c0,0,8.5-5.7,9,0.9l0.2,1.7l0.9,8.7c0,0.3-9.8,0.6-9.8,0.3l0.4-5.2c-0.1-0.4-0.2-0.9-0.2-1.5
	C473.7,187.2,473.4,184.8,473.4,184.8z"/>
<path class="st37" d="M472.4,178.8c0,0-2.8,14.4,3.9,15c5.7,0.6,6.1-8.3,6.1-8.3l-0.4-5.8l-4.5-1.6L472.4,178.8z"/>
<path class="st3" d="M481,177.7c-0.6-0.1-1.1,0-1.6,0.1c-0.2,0.1-0.4-0.1-0.5-0.3c-0.3-1.1-1.2-1.8-2.4-1.8c-0.8,0-1.5,0.4-2,1
	c-0.1,0.2-0.4,0.2-0.6,0.1c-0.8-0.7-1.8-1.1-2.9-0.9c-1.6,0.2-3,1.5-3.2,3.2c-0.3,2.4,1.7,4.4,4.1,4.2c1.7-0.2,3-1.5,3.3-3.2
	c0.1-0.6,0-1.2-0.2-1.7c0.9,0,2.2-0.2,3.4,0c0,0,0,0-0.1,0l2.2,0.8c0,0,0.7,5.9,1.1,5.8c1.6-0.5,2.7-2.1,2.5-4
	C483.9,179.3,482.6,177.9,481,177.7z"/>
<path class="st3" d="M474.4,181.7c0.7-0.9,1.8-1.8,3-1.8c1.7,0,2.9,1.3,2.8,2.9l0,0.3c0,0.3,0.2,0.6,0.5,0.6c0.3,0,0.5,0.3,0.5,0.6
	l0.1,1.6c0,0.1,0.1,0.2,0.2,0.2c0.1,0,0.2-0.1,0.2-0.2l0.1-1.1l-1.1-6.1l-5.1-1.3l-2.1,1.8L474.4,181.7z"/>
<path class="st37" d="M481.9,184.5c0,0,0.3-1.3,1.6-0.9c1.5,0.5,1.6,3.7-0.8,4.2c-1.2,0.3-1.1-0.5-1-1.5
	C481.9,184.5,481.9,184.5,481.9,184.5z"/>
<path class="st6" d="M483.6,184.4c-0.3-0.1-0.5-0.2-0.7-0.1c-0.2,0.1-0.4,0.2-0.5,0.5c-0.1,0.3-0.2,0.6-0.1,0.9l0,0.3
	c0,0.1,0.1,0.1,0.2,0.1c0.1,0,0.1-0.1,0.1-0.2l0-0.3c0-0.1,0-0.5,0.1-0.8c0.1-0.2,0.2-0.3,0.3-0.4c0.1,0,0.3,0,0.5,0.1
	c0.1,0,0.2,0,0.2-0.1C483.7,184.6,483.7,184.5,483.6,184.4z"/>
<path class="st2" d="M482.6,187.9c0,0-0.6,0.1-0.9-0.2l1,1.4L482.6,187.9z"/>
<path class="st37" d="M472.1,183.4l0.7-0.1c0.1,0,0.1-0.1,0.1-0.2c0-0.1-0.1-0.1-0.2-0.1l-0.7,0.1c-0.1,0-0.2,0-0.3,0
	c-0.2,0-0.5,0-0.9-0.1c-0.1,0-0.1,0-0.2,0.1c0,0.1,0,0.1,0.1,0.2c0.4,0.1,0.8,0.2,0.9,0.2C471.9,183.4,472,183.4,472.1,183.4z"/>
<path class="st2" d="M473.8,195l0.2-2.1c0.6,0.6,2.1,1.3,3.9,0.8c0,0,0,0,0,0c1.1-0.3,1.8-0.9,2.3-1.5c0-0.1,0.1-0.1,0.2,0
	c0.1,0,0.1,0.1,0,0.2c-0.6,0.7-1.5,1.5-3,1.7C475.6,195.4,473.8,195,473.8,195z"/>
<path class="st1" d="M474.9,190.1c0,0,0.9,0,1.7-0.4c0.7-0.3,1.1-0.7,1.1-0.7s0.4,1.1-0.7,1.6C475.6,191.2,474.9,190.1,474.9,190.1z
	"/>
<path class="st3" d="M477.2,186.6c0.3,0,0.5-0.2,0.5-0.5c0-0.3-0.2-0.5-0.5-0.5s-0.5,0.2-0.5,0.5
	C476.7,186.4,476.9,186.6,477.2,186.6z"/>
<path class="st1" d="M477,186c0.1,0,0.1,0,0.1-0.1c0-0.1,0-0.1-0.1-0.1c-0.1,0-0.1,0-0.1,0.1C476.9,186,476.9,186,477,186z"/>
<path class="st3" d="M473,186.7c0.3,0,0.5-0.2,0.5-0.5c0-0.3-0.2-0.5-0.5-0.5c-0.3,0-0.5,0.2-0.5,0.5
	C472.5,186.5,472.7,186.7,473,186.7z"/>
<path class="st1" d="M472.8,186.2c0.1,0,0.1,0,0.1-0.1c0-0.1,0-0.1-0.1-0.1s-0.1,0-0.1,0.1C472.7,186.1,472.7,186.2,472.8,186.2z"/>
<g class="st8">
	<path class="st6" d="M475,189.2l0.7,0c0.1,0,0.1-0.1,0.2-0.2c0-0.1-0.1-0.1-0.2-0.2l-0.7,0c-0.2,0-0.3-0.2-0.3-0.3
		c0-0.2,0.2-0.3,0.3-0.3c0.1,0,0.1-0.1,0.2-0.2s-0.1-0.1-0.2-0.2c-0.3,0-0.6,0.3-0.7,0.6C474.3,188.9,474.6,189.2,475,189.2z"/>
</g>
<path class="st3" d="M470.8,185.7l0,0.6c0,1.1,1,2.1,2.1,2c1.1,0,2.1-1,2-2.1l0-0.6c0-0.2-0.1-0.3-0.2-0.5l0.8,0
	c-0.1,0.1-0.2,0.3-0.2,0.5l0,0.6c0,1.1,1,2.1,2.1,2c1.1,0,2.1-1,2-2.1l0-0.6c0-0.4-0.4-0.8-0.8-0.7l-2.6,0.1h0l-2,0.1l-0.3,0
	l-2.3,0.1C471.1,184.9,470.7,185.2,470.8,185.7z M476.1,185.1L476.1,185.1l2.6-0.1c0.3,0,0.5,0.2,0.5,0.5l0,0.6c0,1-0.8,1.8-1.7,1.8
	c-1,0-1.8-0.8-1.8-1.7l0-0.6C475.7,185.3,475.9,185.1,476.1,185.1z M471,185.7c0-0.3,0.2-0.5,0.5-0.5l2.3-0.1l0.3,0
	c0.3,0,0.5,0.2,0.5,0.5l0,0.6c0,1-0.8,1.8-1.7,1.8c-1,0-1.8-0.8-1.8-1.7L471,185.7z"/>
<path class="st37" d="M430.7,188.2c0,0-1,0.3-0.4,2.1c0.6,1.9,4.1,5,4.1,5l1.2-5.6L430.7,188.2z"/>
<path class="st37" d="M439,192.5l-0.5-2.6c0-0.2-0.1-0.4-0.2-0.6l-1.8-3.6c0,0-0.5-0.1-0.6,0.5c-0.2,0.6-0.1,1.8-0.1,1.8l-3.3-6
	c-0.2-0.3-0.5-0.4-0.8-0.2c-0.2,0.1-0.3,0.4-0.2,0.7l1.4,3.2c0,0-1.2-0.6-1.3,1c0,0-1.4,0.5-0.8,2.3c0.6,1.9,3.6,6.3,3.6,6.3h2.3
	L439,192.5z"/>
<g class="st11">
	<g class="st11">
		<path class="st2" d="M432.9,185.8c0,0,0.3,0.4,0.6,1c0.2,0.4,0.4,0.7,0.6,1.2c0.1,0.2,0.3,0.5,0.3,0.8c0,0.1,0,0.3,0,0.5
			c-0.1,0.2-0.2,0.3-0.3,0.4c-0.3,0.2-0.7,0.1-0.9-0.1c-0.3-0.2-0.4-0.4-0.5-0.6c-0.2-0.5-0.4-0.9-0.6-1.2c-0.3-0.7-0.5-1.1-0.5-1.1
			c0,0,0.3,0.4,0.6,1c0.2,0.4,0.4,0.7,0.6,1.2c0.1,0.2,0.3,0.4,0.5,0.5c0.2,0.1,0.5,0.2,0.7,0.1c0.2-0.1,0.3-0.4,0.2-0.6
			c0-0.2-0.2-0.5-0.3-0.7c-0.2-0.4-0.4-0.8-0.6-1.2C433.1,186.2,432.9,185.8,432.9,185.8z"/>
	</g>
</g>
<g class="st11">
	<g class="st11">
		<path class="st2" d="M432.5,188.4c0.2,0.5,0.4,1,0.6,1.5c0,0.1,0.1,0.2,0.1,0.2c0,0.2,0,0.4-0.2,0.5c-0.2,0.1-0.4,0.1-0.6-0.1
			c-0.2-0.1-0.3-0.3-0.4-0.5c-0.2-0.4-0.4-0.7-0.6-1c-0.3-0.6-0.5-1-0.6-0.9c0,0,0.1,0.4,0.4,1c0.1,0.3,0.3,0.7,0.5,1.1
			c0.1,0.2,0.3,0.4,0.5,0.6c0.2,0.1,0.5,0.2,0.8,0.1c0.1-0.1,0.3-0.2,0.3-0.3c0-0.1,0-0.3,0-0.4c0-0.3-0.2-0.5-0.3-0.7l-0.2-0.3
			c0,0-0.1-0.2-0.2-0.3C432.6,188.8,432.5,188.4,432.5,188.4L432.5,188.4z"/>
	</g>
</g>
<g class="st11">
	<g class="st11">
		<path class="st2" d="M432.3,190.9C432.3,190.9,432.3,191,432.3,190.9c0,0.2,0,0.3,0,0.4s-0.1,0.2-0.2,0.3
			c-0.2,0.1-0.5,0.1-0.6-0.1c-0.2-0.1-0.3-0.3-0.4-0.4c-0.2-0.3-0.3-0.6-0.4-0.8c-0.2-0.5-0.3-0.8-0.3-0.8c0,0,0.2,0.3,0.4,0.7
			c0.1,0.2,0.3,0.5,0.4,0.8c0.1,0.1,0.2,0.3,0.3,0.4c0.1,0.1,0.3,0.1,0.5,0c0.1-0.1,0.2-0.3,0.2-0.4c0-0.1-0.1-0.2-0.1-0.3
			c0,0,0.1,0.1,0.1,0.1C432.2,190.8,432.3,190.9,432.3,190.9z"/>
	</g>
</g>
<g class="st11">
	<g class="st11">
		<path class="st2" d="M435.6,191.8c0,0-0.2-0.2-0.3-0.6c-0.1-0.4,0-1,0.3-1.5c0.1-0.2,0.3-0.3,0.4-0.4l0,0.1
			c-0.2-0.9-0.3-1.5-0.3-1.6c0,0,0.2,0.6,0.5,1.5l0,0.1l-0.1,0c-0.1,0.1-0.3,0.2-0.4,0.4c-0.3,0.5-0.4,1-0.3,1.4
			C435.5,191.5,435.6,191.8,435.6,191.8z"/>
	</g>
</g>
<path class="st3" d="M444.4,213.5l-10.2-18.4l4.8-2.7l9.6,11.9l14.3-6.7c1-0.5,2-0.7,3.1-0.7l7.5,0l-1.3,8.1l-20.5,9.9
	C449.3,216.6,446,216,444.4,213.5z"/>
<path class="st1" d="M474,193.1l-0.1,1.6c0,0.3,0,0.4,0.3,0.6l2.2,1.8c0.2,0.1,0.3,0.3,0.3,0.5l1.5,5.3l0.3,6.8l-4.1-9.5l0.4-2
	l-1.5,3.5l-2.2-4.4c-0.2-0.3-0.1-0.8,0.1-1.1L474,193.1z"/>
<path class="st9" d="M463.7,223l14.8-10.9c0.3-0.3,0.8-0.2,1.1,0.2l11.5,16.4h-24.2l-3.3-4.5C463.3,223.8,463.4,223.3,463.7,223z"/>
<path class="st1" d="M465.3,224.6c-0.2-0.2-0.1-0.6,0.1-0.7l13.4-9.9c0.2-0.2,0.6-0.1,0.7,0.1l10.2,14.6h-21.5L465.3,224.6z"/>
<path class="st1" d="M465.3,224.6c-0.2-0.2-0.1-0.6,0.1-0.7l13.4-9.9c0.2-0.2,0.6-0.1,0.7,0.1l10.2,14.6h-21.5L465.3,224.6z"/>
<path class="st38" d="M532.3,170.4l-0.2,0.4l-0.2-0.4l-0.4-0.1l0.3-0.3l-0.1-0.4l0.4,0.2l0.4-0.2l-0.1,0.4l0.3,0.3L532.3,170.4z"/>
<path class="st38" d="M481.9,220.7l-10.4,7.4c-0.2,0.1-0.4,0.1-0.5-0.1c-0.1-0.2-0.1-0.4,0.1-0.5l10.4-7.4c0.2-0.1,0.4-0.1,0.5,0.1
	C482,220.4,482,220.6,481.9,220.7z"/>
<path class="st38" d="M480.8,219.2l-10.4,7.4c-0.2,0.1-0.4,0.1-0.5-0.1c-0.1-0.2-0.1-0.4,0.1-0.5l10.4-7.4c0.2-0.1,0.4-0.1,0.5,0.1
	C481,218.9,480.9,219.1,480.8,219.2z"/>
<path class="st38" d="M482.9,222.2l-8.9,6.3c-0.2,0.1-0.4,0.1-0.5-0.1c-0.1-0.2-0.1-0.4,0.1-0.5l8.9-6.3c0.2-0.1,0.4-0.1,0.5,0.1
	C483.1,221.9,483.1,222.1,482.9,222.2z"/>
<path class="st38" d="M484.1,228.6L484.1,228.6L484.1,228.6L484.1,228.6z"/>
<path class="st38" d="M483.6,223.1c0.2-0.1,0.4-0.1,0.5,0.1c0.1,0.2,0.1,0.4-0.1,0.5l-6.9,4.9h-1.2L483.6,223.1z"/>
<path class="st38" d="M530.7,170.9L530.7,170.9L530.7,170.9L530.7,170.9z"/>
<path class="st38" d="M485.1,224.7c0.1,0.2,0.1,0.4-0.1,0.5l-4.8,3.4H479l5.6-4C484.8,224.5,485,224.5,485.1,224.7z"/>
<g class="st39">
	<path class="st13" d="M469.1,220.8c-0.3-0.4-0.2-1,0.2-1.3l4.3-3.1c0.4-0.3,1-0.2,1.3,0.2c0.3,0.4,0.2,1-0.2,1.3l-4.3,3.1
		C470,221.3,469.4,221.2,469.1,220.8z"/>
</g>
<path class="st9" d="M469.1,220.8c-0.3-0.4-0.2-1,0.2-1.3l4.3-3.1c0.4-0.3,1-0.2,1.3,0.2c0.3,0.4,0.2,1-0.2,1.3l-4.3,3.1
	C470,221.3,469.4,221.2,469.1,220.8z"/>
<path class="st3" d="M497.9,202.8c-1.1-2.6-3.6-4.4-6.4-4.6l-8-0.7l4.4,12.2l4.3,10.3l-14.8,8.7l15.7,0l7.6-3
	c2.2-0.9,3.3-3.3,2.6-5.6L497.9,202.8z"/>
<path class="st1" d="M483.2,193l0.1,1.4c0,0.3-0.1,0.6-0.4,0.8l-2.5,2c-0.2,0.1-0.3,0.3-0.3,0.5l-1.5,5.3l-0.2,6.8l4.1-9.5l-0.4-2
	l1.5,3.5l2.2-4.4c0.2-0.3,0.1-0.8-0.1-1.1L483.2,193z"/>
<path class="st12" d="M538.1,162.2l-3.8-9.1l1.9,8.8l-4.1,2.1l0.9,1.2L538.1,162.2z"/>
<path class="st10" d="M430.1,203.2c0.5,0,1,0,1.6,0.1v3.1c-0.5-0.1-1-0.2-1.6-0.2c-3.8,0-6.9,3.1-6.9,6.9c0,0.5,0,0.9,0.1,1.4h-3.1
	c-0.1-0.4-0.1-0.9-0.1-1.4C420.2,207.6,424.6,203.2,430.1,203.2z"/>
<path class="st9" d="M436.9,213c0-3.2-2.3-6-5.3-6.7v-3.1c4.7,0.7,8.3,4.8,8.3,9.7c0,0.9-0.1,1.8-0.4,2.6h-3.2
	C436.8,214.9,436.9,214,436.9,213z"/>
<path class="st9" d="M423.4,214.4c0.6,3.1,3.4,5.5,6.7,5.5c0.1,0,0.2,0,0.3,0v3c-0.1,0-0.2,0-0.3,0c-5,0-9.1-3.7-9.8-8.5H423.4z"/>
<path class="st33" d="M423.4,214.4c0.6,3.1,3.4,5.5,6.7,5.5c0.1,0,0.2,0,0.3,0v3c-0.1,0-0.2,0-0.3,0c-5,0-9.1-3.7-9.8-8.5H423.4z"/>
<path class="st3" d="M436.4,215.7h3.2c-1.1,4.1-4.8,7.1-9.2,7.2v-3C433.1,219.8,435.4,218.1,436.4,215.7z"/>
<path class="st9" d="M353.3,287.8h-94.1c-1.3,0-2.4-1.1-2.4-2.4v-58.7c0-1.3,1.1-2.4,2.4-2.4h94.1c1.3,0,2.4,1.1,2.4,2.4v58.7
	C355.8,286.7,354.7,287.8,353.3,287.8z"/>
<path d="M259.2,224.2h94.1c1.3,0,2.4,1.1,2.4,2.4v3.8h-98.9v-3.8C256.8,225.3,257.9,224.2,259.2,224.2z"/>
<path class="st34" d="M353.3,287.8h-94.1c-1.3,0-2.4-1.1-2.4-2.4v-58.7c0-1.3,1.1-2.4,2.4-2.4h94.1c1.3,0,2.4,1.1,2.4,2.4v58.7
	C355.8,286.7,354.7,287.8,353.3,287.8z"/>
<path class="st9" d="M351.7,287.8h-94.1c-1.3,0-2.4-1.1-2.4-2.4v-58.7c0-1.3,1.1-2.4,2.4-2.4h94.1c1.3,0,2.4,1.1,2.4,2.4v58.7
	C354.1,286.7,353.1,287.8,351.7,287.8z"/>
<g class="st29">
	<g class="st29">
		<g class="st29">
			<g class="st29">
				<path class="st35" d="M351.7,287.8h-94.1c-1.3,0-2.4-1.1-2.4-2.4v-58.7c0-1.3,1.1-2.4,2.4-2.4h94.1c1.3,0,2.4,1.1,2.4,2.4v58.7
					C354.1,286.7,353.1,287.8,351.7,287.8z"/>
			</g>
		</g>
	</g>
</g>
<path class="st10" d="M257.6,224.2h94.1c1.3,0,2.4,1.1,2.4,2.4v3.8h-98.9v-3.8C255.2,225.3,256.3,224.2,257.6,224.2z"/>
<path d="M260.5,227.4c0,0.6-0.5,1-1,1s-1-0.5-1-1c0-0.6,0.5-1,1-1C260,226.3,260.5,226.8,260.5,227.4z"/>
<path d="M263.9,227.4c0,0.6-0.5,1-1,1c-0.6,0-1-0.5-1-1c0-0.6,0.5-1,1-1C263.4,226.3,263.9,226.8,263.9,227.4z"/>
<path d="M267.4,227.4c0,0.6-0.5,1-1,1c-0.6,0-1-0.5-1-1c0-0.6,0.5-1,1-1C266.9,226.3,267.4,226.8,267.4,227.4z"/>
<path class="st1" d="M259.4,227.7c0.2,0,0.3-0.1,0.3-0.3c0-0.2-0.1-0.3-0.3-0.3c-0.2,0-0.3,0.1-0.3,0.3
	C259.1,227.5,259.3,227.7,259.4,227.7z"/>
<path class="st40" d="M280.2,263.6l-3.5-3.5c-0.1-0.1-0.4-0.2-0.5,0l0,0c-0.4,0.3-0.5,0.9-0.2,1.3l0.8,1.3L280.2,263.6z"/>
<g class="st11">
	<g class="st11">
		<g class="st11">
			<g class="st11">
				<path class="st2" d="M280.2,263.6l-3.5-3.5c-0.1-0.1-0.4-0.2-0.5,0l0,0c-0.4,0.3-0.5,0.9-0.2,1.3l0.8,1.3L280.2,263.6z"/>
			</g>
		</g>
	</g>
</g>
<path class="st40" d="M271.3,259c0.2,0,0.4,0.1,0.5,0.3l0.8,2.5c0.1,0.2,0.2,0.3,0.4,0.3l5.4,0.5c1.1,0.1,2.1,0.9,2.4,2l0.6,2.4
	l-4.4,1.7l-0.5-1.5c-0.1-0.2-0.3-0.4-0.5-0.5l-3.7-0.8c-0.4-0.1-0.8-0.3-1.1-0.7l-3.7-4.9c-0.1-0.2-0.1-0.5,0.1-0.6
	c0.2-0.1,0.4-0.1,0.6,0.1l1.6,1.7l-0.9-2.8c-0.1-0.2,0.1-0.5,0.3-0.6c0.2-0.1,0.5,0,0.5,0.3l1.7,3.9l-0.6-2.7
	C270.8,259.3,271,259.1,271.3,259z"/>
<g class="st11">
	<g class="st11">
		<g class="st11">
			<g class="st11">
				<path class="st2" d="M270,262.4c-0.1,0-0.1,0-0.1-0.1l-0.3-1c0-0.1,0-0.1,0.1-0.2c0.1,0,0.1,0,0.2,0.1l0.3,1
					C270.1,262.3,270.1,262.4,270,262.4C270,262.4,270,262.4,270,262.4z"/>
			</g>
		</g>
	</g>
</g>
<path d="M317.6,246c0,0,3.9,2,2.5,7.4c-0.5,2,1.4,2.5,2.4,3.5c2.6,2.6,0.7,7.5-0.8,7.4l-19.6,7.9c0,0-6.1-10.7-3.2-15.2
	c1.3-2,1.1-2.3,0.5-4.4c-0.8-3.3,1.5-4.5,1.5-4.5l1.2-0.1l5.1-8.8l7.3,6.2l1.2,0.2L317.6,246z"/>
<path class="st40" d="M304.1,259.4l-3,7.6c1.8,2.7,10.4,1.6,12.7-1.8l2.8-6.4l-0.6-0.2c-0.6-0.2-1.1-0.7-1.1-1.4l-0.6-7.1l-7.5-1
	l-0.3,5.8l-0.1,2.9c-0.1,0.6-0.5,1.1-1.1,1.2L304.1,259.4z"/>
<path class="st40" d="M308.5,256.7l0.4,0c2.9,0.1,5.2-2.2,5.3-5l0.2-7.3c0-1-0.7-1.7-1.7-1.8l-6.8-0.2c-1.2,0-2.3,0.9-2.3,2.2
	l-0.2,6.7C303.4,254.2,305.6,256.6,308.5,256.7z"/>
<path class="st3" d="M308.4,248.8c0,0.3,0.2,0.6,0.5,0.6c0.3,0,0.6-0.2,0.6-0.5c0-0.3-0.2-0.6-0.5-0.6
	C308.7,248.3,308.4,248.5,308.4,248.8z"/>
<path class="st1" d="M308.5,249c0,0.1,0,0.1,0.1,0.1c0.1,0,0.1,0,0.1-0.1c0-0.1,0-0.1-0.1-0.1C308.6,248.9,308.5,248.9,308.5,249z"
	/>
<path class="st3" d="M304.1,248.8c0,0.3,0.2,0.6,0.5,0.6c0.3,0,0.6-0.2,0.6-0.5c0-0.3-0.2-0.6-0.5-0.6
	C304.3,248.2,304.1,248.5,304.1,248.8z"/>
<path class="st1" d="M304.2,248.9c0,0.1,0,0.1,0.1,0.1c0.1,0,0.1,0,0.1-0.1c0-0.1,0-0.1-0.1-0.1
	C304.3,248.8,304.2,248.9,304.2,248.9z"/>
<g class="st8">
	<g class="st8">
		<g class="st8">
			<g class="st8">
				<path class="st6" d="M306.7,252l0.8,0c0.1,0,0.2-0.1,0.2-0.2c0-0.1-0.1-0.2-0.2-0.2l-0.8,0c-0.2,0-0.3-0.2-0.3-0.4
					c0-0.2,0.2-0.3,0.4-0.3c0.1,0,0.2-0.1,0.2-0.2c0-0.1-0.1-0.2-0.2-0.2c-0.4,0-0.7,0.3-0.7,0.6C306,251.7,306.3,252,306.7,252z"/>
			</g>
		</g>
	</g>
</g>
<path d="M301.1,248c0.8-0.6,0.5-1.7,0.5-1.7v0c-0.8-5.9,3.3-9.1,6.7-9.5c1.9-0.2,6.9,0.6,7.9,6.5c0.1,0.9,0.1,1.8,1.5,2.6
	c0,0-1.2,2.9-1.6,4c-0.2,0.5-1-1.4-1.4-1.6c0,0-0.4,0.5-0.6,0.8c-0.1,0.2-0.5,0.2-0.6-0.1l0-0.1c-0.3-0.8-0.4-1.7-0.4-2.6
	c-2.4-0.8-2.1-3.3-2.1-3.3c-2.7,4.8-7.4,3-7.4,3l0,2.7c0,0-0.5-0.5-1-1.2l-0.9,0.6L301.1,248z"/>
<path class="st40" d="M313.8,252c0,0,2.4,0.4,3.1-2c0.7-2.4-2.3-3.1-2.9-0.6l-0.5,2.6L313.8,252z"/>
<g class="st8">
	<g class="st8">
		<g class="st8">
			<g class="st8">
				<path class="st6" d="M316.3,248.6c-0.3-0.2-0.5-0.3-0.7-0.3c-0.2,0-0.4,0.2-0.6,0.4c-0.2,0.3-0.3,0.6-0.3,0.9l0,0.3
					c0,0.2,0.3,0.3,0.3,0l0-0.3c0-0.1,0.1-0.5,0.3-0.8c0.1-0.2,0.3-0.3,0.4-0.3c0.1,0,0.3,0,0.5,0.2c0.1,0.1,0.2,0,0.2,0
					C316.4,248.8,316.4,248.7,316.3,248.6z"/>
			</g>
		</g>
	</g>
</g>
<path class="st1" d="M302,249.3c-0.1,1.2,0.9,2.3,2.1,2.4c1.2,0.1,2.3-0.9,2.4-2.1c0-0.4-0.1-0.8-0.3-1.2c0.5-0.2,0.9-0.1,1.1,0
	c-0.1,0.2-0.2,0.5-0.2,0.7c-0.1,1.2,0.9,2.3,2.1,2.4c1.2,0.1,2.3-0.9,2.4-2.1c0.1-1.2-0.9-2.3-2.1-2.4c-0.9-0.1-1.7,0.4-2.1,1.1
	c-0.2-0.1-0.8-0.2-1.4,0c-0.4-0.5-1-0.9-1.7-1C303.2,247.1,302.1,248.1,302,249.3z M307.5,249.1c0.1-1.1,1-1.9,2.1-1.8
	c1.1,0.1,1.9,1,1.8,2.1c-0.1,1.1-1,1.9-2.1,1.8C308.2,251.2,307.4,250.2,307.5,249.1z M302.3,249.3c0.1-1.1,1-1.9,2.1-1.8
	c1.1,0.1,1.9,1,1.8,2.1c-0.1,1.1-1,1.9-2.1,1.8C303.1,251.3,302.3,250.4,302.3,249.3z"/>
<path class="st1" d="M314.1,251.1c0,0.3,0.2,0.5,0.5,0.5c0.3,0,0.5-0.2,0.5-0.5c0-0.3-0.2-0.5-0.5-0.5
	C314.3,250.7,314.1,250.9,314.1,251.1z"/>
<g class="st11">
	<g class="st11">
		<g class="st11">
			<g class="st11">
				<path class="st2" d="M314.4,251.6c0.3,0,0.5-0.2,0.6-0.5c0-0.1,0-0.2-0.1-0.3c0.1,0.1,0.2,0.2,0.2,0.4c0,0.3-0.3,0.5-0.5,0.5
					c-0.1,0-0.2,0-0.3-0.1C314.3,251.6,314.3,251.6,314.4,251.6z"/>
			</g>
		</g>
	</g>
</g>
<g class="st11">
	<g class="st11">
		<g class="st11">
			<g class="st11">
				<path class="st2" d="M314.3,252h-0.8l0.9,1.6L314.3,252z"/>
			</g>
		</g>
	</g>
</g>
<g class="st11">
	<g class="st11">
		<g class="st11">
			<g class="st11">
				<path class="st2" d="M312,256c-0.5,0.3-1.3,0.7-2.4,0.8c-0.6,0.4-1.5,1-2.7,1c-0.2,0-0.4,0-0.6-0.1l0.1-1.5l0.1,0.1
					c0.7,0.3,1.3,0.3,2.1,0.3c0.2,0,0.4,0,0.6,0c0.1,0,0.2,0,0.2,0c0,0,0,0,0.1,0c0.1,0,0.2,0,0.4-0.1c0,0,0.1,0,0.1,0
					c0.8-0.2,1.4-0.4,1.8-0.7c0.1,0,0.2,0,0.2,0.1C312.1,255.9,312.1,256,312,256z"/>
			</g>
		</g>
	</g>
</g>
<path class="st1" d="M306.3,252.9c-0.1,0-0.1,0.1-0.1,0.1c0.3,0.5,0.8,0.9,1.5,0.9c0.6,0,1.2-0.4,1.4-0.9c0-0.1,0-0.1-0.1-0.1
	L306.3,252.9z"/>
<path d="M304.1,247.1C304.1,247.1,304.1,247.1,304.1,247.1c4.2,0.4,6.3-3.2,6.3-3.3c0-0.1,0-0.2-0.1-0.2c-0.1,0-0.2,0-0.2,0.1
	c0,0-2,3.5-6,3.1c-0.1,0-0.2,0.1-0.2,0.2S304,247,304.1,247.1z"/>
<path class="st3" d="M301.1,269.1l1.6-5.7l2-4.1l-3.6,0.8c-1.4,0.3-2.6,1.2-3.3,2.4L286.2,282l-4.7-15.4l-4.7,1.3l3.2,19.8H293
	l2.9-3.5l-0.3,3.5h8.5L301.1,269.1z"/>
<g class="st18">
	<path class="st12" d="M295.9,284.2l0.4-4.6c0-0.4-0.4-0.5-0.6-0.2l-5.8,8.3h3.1L295.9,284.2z"/>
</g>
<path class="st1" d="M319.7,259.7l-3.7-1.1c-1.7,5.9-7.2,9.1-10.8,8.2c-4.1-1,0-7.8,0-7.8l-0.7,0.2l-6.4,11.3
	c-1.2,2.3-1.3,5.1-0.2,7.5l1.1,2.5c0.3,0.7,0.4,1.4,0.4,2.1l-0.4,5.1h17L319.7,259.7z"/>
<path class="st3" d="M328.7,266.6c-0.4-2.6-2.3-4.8-4.8-5.6l-7.1-2.2c0,0-3.7,10.5-4.6,29H323l0.3-4.8l1,4.8h7.9L328.7,266.6z"/>
<g class="st18">
	<path class="st12" d="M324,273.7c0-0.1-0.2-0.1-0.2,0l-0.5,9.2l1,4.8h0.6L324,273.7z"/>
</g>
<g class="st18">
	<g class="st18">
		<path class="st12" d="M286.2,282l0.1,3l3.1-8.5L286.2,282z"/>
	</g>
</g>
<path class="st9" d="M284.6,246.9c5.2,0,9.4-4.2,9.4-9.4c0-5.2-4.2-9.4-9.4-9.4c-5.2,0-9.4,4.2-9.4,9.4
	C275.2,242.7,279.4,246.9,284.6,246.9z"/>
<path class="st9" d="M288.5,245l6,6.1l-5-7L288.5,245z"/>
<path class="st1" d="M280.5,238.3c0.4,0,0.8-0.4,0.8-0.8c0-0.4-0.4-0.8-0.8-0.8c-0.4,0-0.8,0.4-0.8,0.8
	C279.6,237.9,280,238.3,280.5,238.3z"/>
<path class="st1" d="M284.6,238.3c0.4,0,0.8-0.4,0.8-0.8c0-0.4-0.4-0.8-0.8-0.8s-0.8,0.4-0.8,0.8
	C283.8,237.9,284.1,238.3,284.6,238.3z"/>
<path class="st1" d="M288.7,238.3c0.4,0,0.8-0.4,0.8-0.8c0-0.4-0.4-0.8-0.8-0.8c-0.4,0-0.8,0.4-0.8,0.8
	C287.9,237.9,288.3,238.3,288.7,238.3z"/>
<path class="st9" d="M390.2,192.3h-94.1c-1.3,0-2.4-1.1-2.4-2.4v-58.7c0-1.3,1.1-2.4,2.4-2.4h94.1c1.3,0,2.4,1.1,2.4,2.4v58.7
	C392.6,191.3,391.5,192.3,390.2,192.3z"/>
<path d="M296.1,128.8h94.1c1.3,0,2.4,1.1,2.4,2.4v3.8h-98.9v-3.8C293.7,129.9,294.8,128.8,296.1,128.8z"/>
<path class="st34" d="M390.2,192.3h-94.1c-1.3,0-2.4-1.1-2.4-2.4v-58.7c0-1.3,1.1-2.4,2.4-2.4h94.1c1.3,0,2.4,1.1,2.4,2.4v58.7
	C392.6,191.3,391.5,192.3,390.2,192.3z"/>
<path class="st9" d="M388.6,192.3h-94.1c-1.3,0-2.4-1.1-2.4-2.4v-58.7c0-1.3,1.1-2.4,2.4-2.4h94.1c1.3,0,2.4,1.1,2.4,2.4v58.7
	C391,191.3,389.9,192.3,388.6,192.3z"/>
<g class="st29">
	<g class="st29">
		<g class="st29">
			<g class="st29">
				<path class="st35" d="M388.6,192.3h-94.1c-1.3,0-2.4-1.1-2.4-2.4v-58.7c0-1.3,1.1-2.4,2.4-2.4h94.1c1.3,0,2.4,1.1,2.4,2.4V190
					C391,191.3,389.9,192.3,388.6,192.3z"/>
			</g>
		</g>
	</g>
</g>
<path class="st10" d="M294.5,128.8h94.1c1.3,0,2.4,1.1,2.4,2.4v3.8h-98.9v-3.8C292.1,129.9,293.2,128.8,294.5,128.8z"/>
<path d="M297.3,131.9c0,0.6-0.5,1-1,1s-1-0.5-1-1c0-0.6,0.5-1,1-1C296.9,130.9,297.3,131.4,297.3,131.9z"/>
<path d="M300.8,131.9c0,0.6-0.5,1-1,1c-0.6,0-1-0.5-1-1c0-0.6,0.5-1,1-1C300.3,130.9,300.8,131.4,300.8,131.9z"/>
<path d="M304.2,131.9c0,0.6-0.5,1-1,1c-0.6,0-1-0.5-1-1c0-0.6,0.5-1,1-1C303.8,130.9,304.2,131.4,304.2,131.9z"/>
<path class="st9" d="M373.7,188.5l-2.1-6l9-4.3v-10.8c0-2.7-2-5-4.6-5.4l-25.6-3c-2.1-0.3-4.2,0.7-5.2,2.5l-7.9,13.4l6.3,1.9
	l0.4,15.6h29.8L373.7,188.5z"/>
<path class="st1" d="M343,170.9c0,0,0.1,0,0.1,0l1-0.9c0.1-0.1,0.1-0.2,0-0.2s-0.2-0.1-0.2,0l-1,0.9c-0.1,0.1-0.1,0.2,0,0.2
	C342.9,170.9,343,170.9,343,170.9z"/>
<path class="st1" d="M344,171c0,0,0.1,0,0.1,0c0.1-0.1,0.1-0.2,0-0.2l-0.9-1c-0.1-0.1-0.2-0.1-0.2,0c-0.1,0.1-0.1,0.2,0,0.2l0.9,1
	C343.9,170.9,343.9,171,344,171z"/>
<path class="st1" d="M354.1,165.6c0,0,0.1,0,0.1,0l1-0.9c0.1-0.1,0.1-0.2,0-0.2s-0.2-0.1-0.2,0l-1,0.9c-0.1,0.1-0.1,0.2,0,0.2
	C354,165.6,354,165.6,354.1,165.6z"/>
<path class="st1" d="M355,165.7c0,0,0.1,0,0.1,0c0.1-0.1,0.1-0.2,0-0.2l-0.9-1c-0.1-0.1-0.2-0.1-0.2,0c-0.1,0.1-0.1,0.2,0,0.2l0.9,1
	C354.9,165.7,355,165.7,355,165.7z"/>
<path class="st1" d="M362.7,169.8c0-0.6,0.5-1.2,1.2-1.2c0.6,0,1.2,0.5,1.2,1.2c0,0.6-0.5,1.2-1.2,1.2
	C363.2,170.9,362.7,170.4,362.7,169.8z M363,169.8c0,0.5,0.4,0.8,0.8,0.8c0.5,0,0.8-0.4,0.8-0.8c0-0.5-0.4-0.8-0.8-0.8
	C363.4,168.9,363,169.3,363,169.8z"/>
<path class="st1" d="M374.4,172.5c0.1,0,0.2-0.1,0.2-0.2c0-0.5,0.4-0.8,0.8-0.8s0.8,0.4,0.8,0.8c0,0.1,0.1,0.2,0.2,0.2
	c0.1,0,0.2-0.1,0.2-0.2c0-0.6-0.5-1.2-1.2-1.2s-1.2,0.5-1.2,1.2C374.2,172.4,374.3,172.5,374.4,172.5z"/>
<path class="st1" d="M375.9,167.3l2.1-0.7c0.1,0,0.1-0.1,0.1-0.2c0-0.1-0.1-0.1-0.2-0.1l-2.1,0.7c-0.1,0-0.1,0.1-0.1,0.2
	C375.7,167.3,375.8,167.4,375.9,167.3z"/>
<path class="st1" d="M355.3,169.9h2.3c0.1,0,0.2-0.1,0.2-0.2s-0.1-0.2-0.2-0.2h-2.3c-0.1,0-0.2,0.1-0.2,0.2S355.3,169.9,355.3,169.9
	z"/>
<path class="st1" d="M350.4,162.7c0,0,0.1,0,0.1,0c0.1-0.1,0.1-0.2,0-0.2l-1.6-1.6c-0.1-0.1-0.2-0.1-0.2,0c-0.1,0.1-0.1,0.2,0,0.2
	l1.6,1.6C350.3,162.7,350.4,162.7,350.4,162.7z"/>
<path class="st1" d="M361.4,170.6c0-0.6,0.5-1,1-1c0.6,0,1,0.5,1,1c0,0.6-0.5,1-1,1C361.9,171.7,361.4,171.2,361.4,170.6z
	 M361.5,170.6c0,0.5,0.4,1,1,1c0.5,0,1-0.4,1-1c0-0.5-0.4-1-1-1C361.9,169.7,361.5,170.1,361.5,170.6z"/>
<path class="st1" d="M372.9,173.1L372.9,173.1c0.1-0.5,0.5-1,1-1c0.5,0,1,0.4,1,1h0.1c0-0.6-0.5-1-1-1
	C373.4,172.1,372.9,172.6,372.9,173.1z"/>
<path class="st1" d="M376.8,167.7l-2.1,0.7l0,0.1L376.8,167.7L376.8,167.7z"/>
<path class="st1" d="M356.2,170.6h-2.3v0.1L356.2,170.6L356.2,170.6z"/>
<path class="st1" d="M347.4,161.8L347.4,161.8l1.5,1.6l0,0L347.4,161.8z"/>
<path class="st1" d="M345.4,186c-0.1-0.1-0.2-0.2-0.2-0.3c0-0.1,0-0.3,0.1-0.4c0.1-0.1,0.2-0.2,0.3-0.2c0.1,0,0.3,0,0.4,0.1
	c0.1,0.1,0.2,0.2,0.2,0.3c0,0.1,0,0.3-0.1,0.4c-0.1,0.1-0.2,0.2-0.3,0.2c0,0-0.1,0-0.1,0C345.6,186,345.5,186,345.4,186z
	 M345.6,185.3c-0.1,0-0.1,0-0.1,0.1c0,0.1,0,0.1,0,0.2c0,0.1,0,0.1,0.1,0.1c0.1,0,0.1,0,0.2,0c0.1,0,0.1,0,0.1-0.1
	c0-0.1,0-0.1,0-0.2c0-0.1,0-0.1-0.1-0.1C345.8,185.3,345.7,185.3,345.6,185.3C345.7,185.3,345.6,185.3,345.6,185.3z"/>
<path class="st1" d="M371.2,165.8c-0.1-0.1-0.2-0.2-0.2-0.3s0-0.3,0.1-0.4c0.1-0.1,0.2-0.2,0.3-0.2c0.1,0,0.3,0,0.4,0.1
	c0.1,0.1,0.2,0.2,0.2,0.3c0,0.1,0,0.3-0.1,0.4c-0.1,0.1-0.2,0.2-0.3,0.2c0,0-0.1,0-0.1,0C371.4,165.9,371.3,165.8,371.2,165.8z
	 M371.5,165.1c-0.1,0-0.1,0-0.1,0.1c0,0.1,0,0.1,0,0.2c0,0.1,0,0.1,0.1,0.1c0.1,0,0.1,0,0.2,0c0.1,0,0.1,0,0.1-0.1
	c0-0.1,0-0.1,0-0.2c0-0.1,0-0.1-0.1-0.1C371.6,165.1,371.6,165.1,371.5,165.1C371.5,165.1,371.5,165.1,371.5,165.1z"/>
<path class="st1" d="M346.7,167c-0.1-0.1-0.2-0.2-0.2-0.3c0-0.1,0-0.3,0.1-0.4c0.1-0.1,0.2-0.2,0.3-0.2c0.1,0,0.3,0,0.4,0.1
	c0.1,0.1,0.2,0.2,0.2,0.3c0,0.1,0,0.3-0.1,0.4c-0.1,0.2-0.3,0.3-0.5,0.3C346.9,167.1,346.8,167.1,346.7,167z M346.9,166.3
	c-0.1,0-0.1,0-0.1,0.1c0,0.1,0,0.1,0,0.2c0,0.1,0,0.1,0.1,0.1c0.1,0.1,0.3,0,0.3-0.1c0-0.1,0-0.1,0-0.2c0-0.1,0-0.1-0.1-0.1
	C347.1,166.3,347,166.3,346.9,166.3C347,166.3,347,166.3,346.9,166.3z"/>
<path class="st30" d="M358.5,149.5c0,0,8.7-5.5,9,1.2l0.1,1.7l0.6,8.6l0,0.1c0,0.3-0.1,0.5-0.2,0.7l-5,3.4c-0.1,0.1-0.4,0.1-0.5,0
	l-3.7-3.2c-0.3-0.2-0.4-0.6-0.3-0.9l0.1-1.3l0.4-3.9c-0.1-0.4-0.2-1-0.2-1.5C358.7,151.8,358.5,149.5,358.5,149.5z"/>
<path class="st10" d="M357.7,149.9c1.6,0,2.9-1.3,2.9-2.9c0-1.6-1.3-2.9-2.9-2.9c-1.6,0-2.9,1.3-2.9,2.9
	C354.8,148.5,356.1,149.9,357.7,149.9z"/>
<path class="st30" d="M357.5,144.7c0,0-3.1,13,3.6,13.8c5.8,0.8,6.4-8.2,6.4-8.2l-0.3-5.8L357.5,144.7z"/>
<path class="st10" d="M357.9,145.6l5.9,0.4c0.7,0.1,1.3,0.7,1.2,1.4c-0.1,0.7,0.5,1.4,1.2,1.4c0.2,0,0.3,0.2,0.3,0.4l-0.1,1.3
	c0,0.2,0.1,0.3,0.3,0.3c0.1,0,0.3-0.1,0.3-0.2l0.3-1.2l0.3-0.4l1.4,0.9c0,0,2.2-3.5,1.2-6.6c-0.6-1.8-2.4-2.4-3.2-2.5
	c-0.3,0-0.5-0.2-0.7-0.4c-0.3-0.6-1.2-1.6-3-1.5c-1.4,0-2.2,0.8-2.6,1.5c-0.2,0.4-0.7,0.5-1.1,0.3c-0.6-0.3-1.5-0.4-2.5,0.2
	C355.1,141.9,355.8,145.2,357.9,145.6z"/>
<path class="st2" d="M367.6,152.8c0,0-0.6,0-0.9-0.2l0.9,1.5L367.6,152.8z"/>
<path class="st30" d="M367.3,149.4c0,0,0.4-1.2,1.7-0.7c1.5,0.6,1.2,3.9-1.3,4.1c-1.3,0.1-1-0.6-0.8-1.6
	C367.3,149.4,367.3,149.4,367.3,149.4z"/>
<path class="st6" d="M369.1,149.6c-0.3-0.2-0.5-0.2-0.7-0.2c-0.2,0-0.4,0.2-0.6,0.4c-0.1,0.3-0.2,0.6-0.2,0.9l0,0.3
	c0,0.1,0.1,0.1,0.1,0.1c0.1,0,0.1-0.1,0.1-0.1l0-0.3c0-0.1,0-0.5,0.2-0.7c0.1-0.2,0.2-0.3,0.4-0.3c0.1,0,0.3,0,0.5,0.1
	c0.1,0,0.2,0,0.2,0C369.2,149.7,369.2,149.6,369.1,149.6z"/>
<path class="st30" d="M357.8,145.8l0.7,0.1c0.1,0,0.1,0,0.1-0.1c0-0.1,0-0.1-0.1-0.1l-0.7-0.1c-0.1,0-0.2,0-0.3,0
	c-0.2-0.1-0.5-0.2-0.8-0.4c-0.1,0-0.1,0-0.2,0s0,0.1,0,0.2c0.3,0.2,0.7,0.4,0.9,0.4C357.6,145.8,357.7,145.8,357.8,145.8z"/>
<path class="st2" d="M358.6,159.6l0.2-2.1c0.6,0.6,2.1,1.4,3.9,0.9c0,0,0,0,0,0c1.1-0.3,1.9-0.9,2.3-1.5c0-0.1,0.1-0.1,0.2,0
	c0.1,0,0.1,0.1,0,0.2c-0.6,0.7-1.6,1.5-3.1,1.6C360.3,160.1,358.6,159.6,358.6,159.6z"/>
<g class="st8">
	<path class="st6" d="M360.6,155.9C360.6,156,360.6,156,360.6,155.9c0.6,0,0.8,0.1,0.8,0.1c0.1,0,0.2-0.1,0.2-0.2
		c0-0.1-0.1-0.2-0.2-0.2c0,0-0.3,0-0.8-0.1c-0.1,0-0.2,0.1-0.2,0.1C360.4,155.9,360.5,155.9,360.6,155.9z"/>
</g>
<g class="st8">
	<path class="st6" d="M360.3,155.2c1.5,0.2,2.1-0.6,2.3-1c0-0.1,0-0.2-0.1-0.2c-0.1,0-0.2,0-0.2,0.1c-0.2,0.4-0.9,1.2-2.7,0.6
		c-0.1,0-0.2,0-0.2,0.1c0,0.1,0,0.2,0.1,0.2C359.8,155.1,360.1,155.2,360.3,155.2z"/>
</g>
<path class="st3" d="M362.3,151.3c0.3,0,0.5-0.2,0.5-0.5s-0.2-0.5-0.5-0.5c-0.3,0-0.5,0.2-0.5,0.5S362,151.3,362.3,151.3z"/>
<path class="st1" d="M362,150.7c0.1,0,0.1,0,0.1-0.1c0-0.1,0-0.1-0.1-0.1c-0.1,0-0.1,0-0.1,0.1C361.9,150.7,362,150.7,362,150.7z"/>
<path class="st3" d="M358,151.4c0.3,0,0.5-0.2,0.5-0.5s-0.2-0.5-0.5-0.5s-0.5,0.2-0.5,0.5S357.8,151.4,358,151.4z"/>
<path class="st1" d="M357.8,150.8c0.1,0,0.1,0,0.1-0.1c0-0.1,0-0.1-0.1-0.1c-0.1,0-0.1,0-0.1,0.1
	C357.7,150.7,357.8,150.8,357.8,150.8z"/>
<g class="st8">
	<path class="st6" d="M359.9,153.9l0.7,0c0.1,0,0.1-0.1,0.2-0.1c0-0.1-0.1-0.1-0.1-0.2l-0.7,0c-0.2,0-0.3-0.2-0.3-0.3
		c0-0.2,0.2-0.3,0.3-0.3c0.1,0,0.1-0.1,0.2-0.1c0-0.1-0.1-0.1-0.1-0.2c-0.3,0-0.6,0.2-0.7,0.6C359.3,153.6,359.5,153.9,359.9,153.9z
		"/>
</g>
<path class="st3" d="M355.8,150.2v0.6c0,1.2,0.9,2.1,2.1,2.1c1.2,0,2.1-0.9,2.1-2.1v-0.6c0-0.2,0-0.3-0.1-0.5h0.8
	c-0.1,0.1-0.2,0.3-0.2,0.5v0.6c0,1.2,0.9,2.1,2.1,2.1c1.2,0,2.1-0.9,2.1-2.1v-0.6c0-0.4-0.3-0.8-0.8-0.8h-2.6h0h-2h-0.3h-2.3
	C356.1,149.4,355.8,149.8,355.8,150.2z M361.2,149.8L361.2,149.8h2.6c0.3,0,0.5,0.2,0.5,0.5v0.6c0,1-0.8,1.8-1.8,1.8
	c-1,0-1.8-0.8-1.8-1.8v-0.6C360.7,149.9,361,149.8,361.2,149.8z M356,150.2c0-0.3,0.2-0.5,0.5-0.5h2.3h0.3c0.3,0,0.5,0.2,0.5,0.5
	v0.6c0,1-0.8,1.8-1.8,1.8c-1,0-1.8-0.8-1.8-1.8L356,150.2z"/>
<path class="st30" d="M380.6,178.2h-9.7l3.1,14.2h6.6L380.6,178.2z"/>
<path class="st30" d="M375.8,185.4l-2.1-2.9l-1.6-6.3c-0.1-0.3-0.2-0.6-0.4-0.8c-0.2-0.3-0.5-0.5-1-0.8l-5.2-2.5
	c-0.3-0.2-0.7,0-0.9,0.3c-0.2,0.3-0.1,0.7,0.3,0.9l4.3,2.6l-3.9-1.2c-0.4-0.1-0.9,0.2-0.9,0.7c0,0.3,0.2,0.5,0.4,0.6l4.6,1.9
	l-3.5-1.5c-0.4-0.2-0.9,0.1-0.9,0.6c0,0.2,0.1,0.4,0.3,0.5l3.7,2.3l-2.5-1.5c-0.3-0.2-0.7,0-0.8,0.3c0,0.2,0,0.4,0.1,0.5l2.1,2.1
	l3.6,11h2.7C375.2,189.4,375.8,185.4,375.8,185.4z"/>
<path class="st30" d="M379.7,191.2l-3.4-4.5l-5.6,2.4l1.1,3.3h8.6C380.2,191.9,380,191.5,379.7,191.2z"/>
<path class="st2" d="M373.7,182.4l-1.6-6.3c-0.2-0.6-0.6-1.1-1.1-1.4l-0.6-0.3l0-0.5l1.4,0.6c0.6,0.3,1,0.8,1.2,1.5l1.4,6.2l6.1,7.8
	l0.1,2.4L373.7,182.4z"/>
<path class="st3" d="M365.3,172.1l-22.2,0l4.1,20.2h22.2L365.3,172.1z"/>
<path class="st30" d="M337.3,174.8l-5.4,8.9l8.9,1.5l4-8.3L337.3,174.8z"/>
<path class="st30" d="M339.9,179l1.4,0.8l3.1-2.4c0.7-0.2,1.1-0.3,1.8,0l5.5,1.7c0.4,0.1,0.6,0.5,0.5,0.8c-0.1,0.3-0.4,0.6-0.8,0.5
	l-5-1l3.7,1.8c0.4,0.2,0.5,0.8,0.2,1.1c-0.2,0.2-0.5,0.2-0.7,0.2l-4.7-1.7l3.6,1.3c0.4,0.2,0.5,0.7,0.2,1c-0.2,0.2-0.4,0.2-0.6,0.2
	l-4.6-0.9l3.1,0.7c0.4,0.1,0.6,0.5,0.4,0.8c-0.1,0.2-0.3,0.3-0.5,0.3l-3,0.1l-3.4,4c-1.6,1.9-4.4,2.4-6.5,1.1
	c-0.1,0-0.1-0.1-0.2-0.1l-0.1-0.1C331.9,186.1,339.9,179,339.9,179z"/>
<path class="st30" d="M339.9,179l-5,2.5c-2.1,0.4-3.5,2.2-3.4,4.3c0.2,2.8,3.1,4.6,5.7,3.5l3.1-3.1L339.9,179z"/>
<path class="st2" d="M341.3,179.8l3-2.2l-3,1.4l-7.6,1.7l-1.3,2.2L341.3,179.8z"/>
<path class="st3" d="M344.6,177.3l-0.4,0.2l-0.4-2.1l2.2,0.6L344.6,177.3z"/>
<path class="st3" d="M366.2,176.3l0.8-1.7l-0.9-0.5l-0.2,0.4L366.2,176.3z"/>
<path class="st3" d="M367.6,173.1l2-4.7c0.1-0.3,0-0.6-0.3-0.7c-0.3-0.1-0.6,0-0.8,0.3l-1.9,4.7L367.6,173.1z"/>
<path class="st41" d="M369.2,177.9l-3-1.3"/>
<path class="st2" d="M369.2,176l-2.6-0.8l-0.2,0.4L369.2,176z"/>
<path class="st41" d="M368.9,179.7l-2.2-1.3"/>
<g class="st11">
	<path class="st2" d="M343.3,182.3c0-0.1,0.1-0.1,0.2-0.1l2.5,0.5l0.6,0.1c0.2,0,0.4,0.2,0.4,0.4l-3.6-0.7
		C343.4,182.5,343.3,182.4,343.3,182.3z"/>
</g>
<path class="st2" d="M344.8,180.9c-0.1,0-0.1-0.1-0.1-0.2c0-0.1,0.1-0.1,0.2-0.1l1.6,0.6l-1.6-0.6l1.9,0.7l1.8,0.6
	c0.2,0.1,0.3,0.3,0.3,0.4c0,0,0,0,0,0L344.8,180.9z"/>
<path class="st2" d="M351.7,167.4l-3.1,4.8h1.7L351.7,167.4z"/>
<path class="st2" d="M370.4,174.5l-0.1-5.8l-1.5,5L370.4,174.5z"/>
<path class="st28" d="M358.5,159.9l-0.1,1.3c0,0.3,0.1,0.7,0.3,0.9l3.7,3.2c0.1,0.1,0.3,0.1,0.5,0l5-3.4c0.1-0.2,0.2-0.4,0.2-0.7
	l0-0.1l1.4,0.2l-0.2,0.6c0,0.2-0.2,0.3-0.3,0.4l-5.9,4.2c-0.3,0.2-0.7,0.2-1-0.1l-4.6-4.1c-0.2-0.2-0.3-0.4-0.3-0.7l0.1-1.8
	L358.5,159.9z"/>
<path class="st28" d="M380.6,178.2h-7.2l-0.3-1.2h7.5V178.2z"/>
<path class="st28" d="M337.3,174.8l0.7-1.2l5.8,1.7l0.3,1.4L337.3,174.8z"/>
<path class="st9" d="M325.3,149.2H303c-0.2,0-0.4-0.2-0.4-0.4v-6.9c0-0.2,0.2-0.4,0.4-0.4h22.3c0.2,0,0.4,0.2,0.4,0.4v6.9
	C325.8,149,325.6,149.2,325.3,149.2z"/>
<path class="st20" d="M325.3,149.2H303c-0.2,0-0.4-0.2-0.4-0.4v-6.9c0-0.2,0.2-0.4,0.4-0.4h22.3c0.2,0,0.4,0.2,0.4,0.4v6.9
	C325.8,149,325.6,149.2,325.3,149.2z"/>
<path class="st1" d="M324.8,149.2h-22.3c-0.2,0-0.4-0.2-0.4-0.4v-6.9c0-0.2,0.2-0.4,0.4-0.4h22.3c0.2,0,0.4,0.2,0.4,0.4v6.9
	C325.2,149,325,149.2,324.8,149.2z"/>
<path class="st15" d="M319.2,144.3h-6.6c-0.2,0-0.4-0.2-0.4-0.3c0-0.2,0.2-0.3,0.4-0.3h6.6c0.2,0,0.4,0.2,0.4,0.3
	C319.6,144.2,319.4,144.3,319.2,144.3z"/>
<path class="st42" d="M322.4,145.7h-10c-0.1,0-0.2-0.1-0.2-0.2s0.1-0.2,0.2-0.2h10c0.1,0,0.2,0.1,0.2,0.2
	C322.6,145.6,322.5,145.7,322.4,145.7z"/>
<path class="st42" d="M318.4,146.8h-5.9c-0.1,0-0.2-0.1-0.2-0.2c0-0.1,0.1-0.2,0.2-0.2h5.9c0.1,0,0.2,0.1,0.2,0.2
	C318.6,146.7,318.5,146.8,318.4,146.8z"/>
<path class="st9" d="M307.6,142.8h-0.5v0c-1.1,0.2-1.9,1.2-1.9,2.3s0.8,2.1,1.9,2.3v0h0.5c1.3,0,2.4-1.1,2.4-2.4
	C310,143.9,308.9,142.8,307.6,142.8z"/>
<path class="st9" d="M307.1,147.6c1.3,0,2.4-1.1,2.4-2.4s-1.1-2.4-2.4-2.4s-2.4,1.1-2.4,2.4S305.8,147.6,307.1,147.6z"/>
<path class="st31" d="M307.1,147.6c1.3,0,2.4-1.1,2.4-2.4s-1.1-2.4-2.4-2.4s-2.4,1.1-2.4,2.4S305.8,147.6,307.1,147.6z"/>
<path class="st1" d="M306.7,146.2l-0.8-0.8c0,0,0-0.1,0-0.2l0.2-0.2c0,0,0.1,0,0.2,0l0.5,0.5l1.2-1.2c0,0,0.1,0,0.2,0l0.2,0.2
	c0,0,0,0.1,0,0.2l-1.5,1.5C306.8,146.3,306.7,146.3,306.7,146.2z"/>
<path class="st9" d="M325.3,161.5H303c-0.2,0-0.4-0.2-0.4-0.4v-6.9c0-0.2,0.2-0.4,0.4-0.4h22.3c0.2,0,0.4,0.2,0.4,0.4v6.9
	C325.8,161.3,325.6,161.5,325.3,161.5z"/>
<path class="st20" d="M325.3,161.5H303c-0.2,0-0.4-0.2-0.4-0.4v-6.9c0-0.2,0.2-0.4,0.4-0.4h22.3c0.2,0,0.4,0.2,0.4,0.4v6.9
	C325.8,161.3,325.6,161.5,325.3,161.5z"/>
<path class="st1" d="M324.8,161.5h-22.3c-0.2,0-0.4-0.2-0.4-0.4v-6.9c0-0.2,0.2-0.4,0.4-0.4h22.3c0.2,0,0.4,0.2,0.4,0.4v6.9
	C325.2,161.3,325,161.5,324.8,161.5z"/>
<path class="st15" d="M319.2,156.7h-6.6c-0.2,0-0.4-0.2-0.4-0.3c0-0.2,0.2-0.3,0.4-0.3h6.6c0.2,0,0.4,0.2,0.4,0.3
	C319.6,156.5,319.4,156.7,319.2,156.7z"/>
<path class="st42" d="M322.4,158h-10c-0.1,0-0.2-0.1-0.2-0.2c0-0.1,0.1-0.2,0.2-0.2h10c0.1,0,0.2,0.1,0.2,0.2
	C322.6,157.9,322.5,158,322.4,158z"/>
<path class="st42" d="M318.4,159.1h-5.9c-0.1,0-0.2-0.1-0.2-0.2s0.1-0.2,0.2-0.2h5.9c0.1,0,0.2,0.1,0.2,0.2S318.5,159.1,318.4,159.1
	z"/>
<path class="st9" d="M307.6,155.2h-0.5v0c-1.1,0.2-1.9,1.2-1.9,2.3c0,1.2,0.8,2.1,1.9,2.3v0h0.5c1.3,0,2.4-1.1,2.4-2.4
	C310,156.2,308.9,155.2,307.6,155.2z"/>
<path class="st9" d="M307.1,159.9c1.3,0,2.4-1.1,2.4-2.4c0-1.3-1.1-2.4-2.4-2.4s-2.4,1.1-2.4,2.4
	C304.7,158.9,305.8,159.9,307.1,159.9z"/>
<path class="st31" d="M307.1,159.9c1.3,0,2.4-1.1,2.4-2.4c0-1.3-1.1-2.4-2.4-2.4s-2.4,1.1-2.4,2.4
	C304.7,158.9,305.8,159.9,307.1,159.9z"/>
<path class="st1" d="M306.7,158.5l-0.8-0.8c0,0,0-0.1,0-0.2l0.2-0.2c0,0,0.1,0,0.2,0l0.5,0.5l1.2-1.2c0,0,0.1,0,0.2,0l0.2,0.2
	c0,0,0,0.1,0,0.2l-1.5,1.5C306.8,158.6,306.7,158.6,306.7,158.5z"/>
<path class="st9" d="M325.3,173.8H303c-0.2,0-0.4-0.2-0.4-0.4v-6.9c0-0.2,0.2-0.4,0.4-0.4h22.3c0.2,0,0.4,0.2,0.4,0.4v6.9
	C325.8,173.7,325.6,173.8,325.3,173.8z"/>
<path class="st20" d="M325.3,173.8H303c-0.2,0-0.4-0.2-0.4-0.4v-6.9c0-0.2,0.2-0.4,0.4-0.4h22.3c0.2,0,0.4,0.2,0.4,0.4v6.9
	C325.8,173.7,325.6,173.8,325.3,173.8z"/>
<path class="st1" d="M324.8,173.8h-22.3c-0.2,0-0.4-0.2-0.4-0.4v-6.9c0-0.2,0.2-0.4,0.4-0.4h22.3c0.2,0,0.4,0.2,0.4,0.4v6.9
	C325.2,173.7,325,173.8,324.8,173.8z"/>
<path class="st15" d="M319.2,169h-6.6c-0.2,0-0.4-0.2-0.4-0.3c0-0.2,0.2-0.3,0.4-0.3h6.6c0.2,0,0.4,0.2,0.4,0.3
	C319.6,168.8,319.4,169,319.2,169z"/>
<path class="st42" d="M322.4,170.3h-10c-0.1,0-0.2-0.1-0.2-0.2c0-0.1,0.1-0.2,0.2-0.2h10c0.1,0,0.2,0.1,0.2,0.2
	C322.6,170.2,322.5,170.3,322.4,170.3z"/>
<path class="st42" d="M318.4,171.4h-5.9c-0.1,0-0.2-0.1-0.2-0.2c0-0.1,0.1-0.2,0.2-0.2h5.9c0.1,0,0.2,0.1,0.2,0.2
	C318.6,171.4,318.5,171.4,318.4,171.4z"/>
<path class="st9" d="M307.6,167.5h-0.5v0c-1.1,0.2-1.9,1.2-1.9,2.3c0,1.2,0.8,2.1,1.9,2.3v0h0.5c1.3,0,2.4-1.1,2.4-2.4
	C310,168.5,308.9,167.5,307.6,167.5z"/>
<path class="st9" d="M307.1,172.2c1.3,0,2.4-1.1,2.4-2.4s-1.1-2.4-2.4-2.4s-2.4,1.1-2.4,2.4S305.8,172.2,307.1,172.2z"/>
<path class="st31" d="M307.1,172.2c1.3,0,2.4-1.1,2.4-2.4s-1.1-2.4-2.4-2.4s-2.4,1.1-2.4,2.4S305.8,172.2,307.1,172.2z"/>
<path class="st1" d="M306.7,170.9l-0.8-0.8c0,0,0-0.1,0-0.2l0.2-0.2c0,0,0.1,0,0.2,0l0.5,0.5l1.2-1.2c0,0,0.1,0,0.2,0l0.2,0.2
	c0,0,0,0.1,0,0.2l-1.5,1.5C306.8,170.9,306.7,170.9,306.7,170.9z"/>
<path class="st9" d="M325.3,186.2H303c-0.2,0-0.4-0.2-0.4-0.4v-6.9c0-0.2,0.2-0.4,0.4-0.4h22.3c0.2,0,0.4,0.2,0.4,0.4v6.9
	C325.8,186,325.6,186.2,325.3,186.2z"/>
<path class="st20" d="M325.3,186.2H303c-0.2,0-0.4-0.2-0.4-0.4v-6.9c0-0.2,0.2-0.4,0.4-0.4h22.3c0.2,0,0.4,0.2,0.4,0.4v6.9
	C325.8,186,325.6,186.2,325.3,186.2z"/>
<path class="st1" d="M324.8,186.2h-22.3c-0.2,0-0.4-0.2-0.4-0.4v-6.9c0-0.2,0.2-0.4,0.4-0.4h22.3c0.2,0,0.4,0.2,0.4,0.4v6.9
	C325.2,186,325,186.2,324.8,186.2z"/>
<path class="st15" d="M319.2,181.3h-6.6c-0.2,0-0.4-0.2-0.4-0.3c0-0.2,0.2-0.3,0.4-0.3h6.6c0.2,0,0.4,0.2,0.4,0.3
	C319.6,181.1,319.4,181.3,319.2,181.3z"/>
<path class="st42" d="M322.4,182.6h-10c-0.1,0-0.2-0.1-0.2-0.2c0-0.1,0.1-0.2,0.2-0.2h10c0.1,0,0.2,0.1,0.2,0.2
	C322.6,182.6,322.5,182.6,322.4,182.6z"/>
<path class="st42" d="M318.4,183.8h-5.9c-0.1,0-0.2-0.1-0.2-0.2c0-0.1,0.1-0.2,0.2-0.2h5.9c0.1,0,0.2,0.1,0.2,0.2
	C318.6,183.7,318.5,183.8,318.4,183.8z"/>
<path class="st9" d="M307.6,179.8h-0.5v0c-1.1,0.2-1.9,1.2-1.9,2.3c0,1.2,0.8,2.1,1.9,2.3v0h0.5c1.3,0,2.4-1.1,2.4-2.4
	C310,180.9,308.9,179.8,307.6,179.8z"/>
<path class="st9" d="M307.1,184.6c1.3,0,2.4-1.1,2.4-2.4c0-1.3-1.1-2.4-2.4-2.4s-2.4,1.1-2.4,2.4
	C304.7,183.5,305.8,184.6,307.1,184.6z"/>
<path class="st31" d="M307.1,184.6c1.3,0,2.4-1.1,2.4-2.4c0-1.3-1.1-2.4-2.4-2.4s-2.4,1.1-2.4,2.4
	C304.7,183.5,305.8,184.6,307.1,184.6z"/>
<path class="st1" d="M306.7,183.2l-0.8-0.8c0,0,0-0.1,0-0.2l0.2-0.2c0,0,0.1,0,0.2,0l0.5,0.5l1.2-1.2c0,0,0.1,0,0.2,0l0.2,0.2
	c0,0,0,0.1,0,0.2l-1.5,1.5C306.8,183.2,306.7,183.2,306.7,183.2z"/>
<path class="st9" d="M485.8,315.8h-94.1c-1.3,0-2.4-1.1-2.4-2.4v-58.7c0-1.3,1.1-2.4,2.4-2.4h94.1c1.3,0,2.4,1.1,2.4,2.4v58.7
	C488.2,314.8,487.1,315.8,485.8,315.8z"/>
<path d="M391.7,252.3h94.1c1.3,0,2.4,1.1,2.4,2.4v3.8h-98.9v-3.8C389.3,253.4,390.4,252.3,391.7,252.3z"/>
<path class="st34" d="M485.8,315.8h-94.1c-1.3,0-2.4-1.1-2.4-2.4v-58.7c0-1.3,1.1-2.4,2.4-2.4h94.1c1.3,0,2.4,1.1,2.4,2.4v58.7
	C488.2,314.8,487.1,315.8,485.8,315.8z"/>
<path class="st9" d="M484.2,315.8h-94.1c-1.3,0-2.4-1.1-2.4-2.4v-58.7c0-1.3,1.1-2.4,2.4-2.4h94.1c1.3,0,2.4,1.1,2.4,2.4v58.7
	C486.6,314.8,485.5,315.8,484.2,315.8z"/>
<g class="st29">
	<g class="st29">
		<g class="st29">
			<g class="st29">
				<path class="st35" d="M484.2,315.8h-94.1c-1.3,0-2.4-1.1-2.4-2.4v-58.7c0-1.3,1.1-2.4,2.4-2.4h94.1c1.3,0,2.4,1.1,2.4,2.4v58.7
					C486.6,314.8,485.5,315.8,484.2,315.8z"/>
			</g>
		</g>
	</g>
</g>
<path class="st10" d="M390.1,252.3h94.1c1.3,0,2.4,1.1,2.4,2.4v3.8h-98.9v-3.8C387.7,253.4,388.8,252.3,390.1,252.3z"/>
<path d="M392.9,255.4c0,0.6-0.5,1-1,1s-1-0.5-1-1s0.5-1,1-1S392.9,254.9,392.9,255.4z"/>
<path d="M396.4,255.4c0,0.6-0.5,1-1,1s-1-0.5-1-1s0.5-1,1-1S396.4,254.9,396.4,255.4z"/>
<path d="M399.8,255.4c0,0.6-0.5,1-1,1c-0.6,0-1-0.5-1-1s0.5-1,1-1C399.4,254.4,399.8,254.9,399.8,255.4z"/>
<path class="st1" d="M391.9,255.7c0.2,0,0.3-0.1,0.3-0.3c0-0.2-0.1-0.3-0.3-0.3c-0.2,0-0.3,0.1-0.3,0.3
	C391.6,255.6,391.7,255.7,391.9,255.7z"/>
<path class="st3" d="M441.1,274.4c-0.2,0.6-0.5,1.3-0.7,2c-0.8,2.2,1.4,2.6,1.4,2.6s-0.8,1.5,0.3,2.8c1.1,1.3,2.5,0.7,2.5,0.7
	s0.5,0.7,1.8,0.8c1.9,0.2,2.7-0.6,2.7-0.6l2-0.3c0.3,0.2,0.4,1.2,2.5,1.5c1.9,0.3,3-0.8,3-0.8c0.5,1,2.9,0.9,3.2-0.6
	c0.3-1.5-0.4-2.1-0.4-2.2c1.2,0.9,3.4-1.4,1.3-3.7c-0.9-1-1.3-1.4-1.7-1.9c1,0.3,2.1-0.8,1.7-1.9c-0.5-1.3-1.6-0.9-2.6-2.8
	c-1.3-2.6-2.3-3.5-2.3-3.5c-1.7-1.8-4.3-2.6-7.2-2.6c-2.4,0.1-3.9,1-4.8,2c-0.7,0.9-1.1,1.9-1.2,3.1c0,0.2,0,0.5-0.1,0.7
	c-0.4,0.8-1.1,2.3-2,2.7C439.4,273,439.9,274.6,441.1,274.4z"/>
<path class="st3" d="M447.9,281.6c1.2,0,2.2-1,2.2-2.2c0-1.2-1-2.2-2.2-2.2c-1.2,0-2.2,1-2.2,2.2
	C445.7,280.6,446.7,281.6,447.9,281.6z"/>
<path class="st43" d="M410.1,278.4l8.3,10.5l8.7-3l2.6,6.9l-8.8,2.5c-2.5,0.7-5.2-0.4-6.5-2.6l-7.2-12.3L410.1,278.4z"/>
<path class="st43" d="M409.8,277.7c0,0-0.2-1.1-0.7-3c-0.2-0.6-1-0.4-1.1-0.2c-0.2,0.4-0.1,1-0.1,1.5c0,1.3-3.9-1.4-5-2.2
	c-0.2-0.1-0.4,0-0.4,0.2c0,0.6,0.7,2.1,3.8,5.4c0.4,0.4,0.7,0.8,1.2,1.2C413.7,286.9,409.8,277.7,409.8,277.7z"/>
<path class="st9" d="M429.8,292.8l-2.6-6.9c0,0,5.9-2,9.2-3.1c1.4-0.5,2.8-0.7,4.2-0.6l4.1,0.2l12.9,0.7c4.1,0.3,7.1,4.1,6.4,8.2
	l-1.2,6.6l-0.9,5.9v11.9h-24.5c0,0,0.5-4.3-0.2-11.7c-0.4-4.4-2.6-4.9-2.2-8.9c0.2-1.7,1-2.8,1.7-4.4l-2,0.6L429.8,292.8z"/>
<path class="st44" d="M452.9,273.9l-0.2,7.5c0,0.6,0.4,1.2,0.9,1.3l0.8,0.3l-2,1.1c-2,1.1-4.4,1.2-6.5,0.3c-0.4-0.2-0.7-0.4-1.1-0.6
	l-2.1-1.4l1-0.2c0.6-0.1,1-0.6,1.1-1.1l1.5-8.9L452.9,273.9z"/>
<path class="st44" d="M447.3,279.7l0.4,0c2.6,0.2,4.8-1.6,5-4.2l0.6-6.5c0.1-0.9-0.5-1.6-1.4-1.7l-6-0.6c-1.1-0.1-2.1,0.7-2.2,1.8
	l-0.6,6C442.9,277.2,444.8,279.5,447.3,279.7z"/>
<path class="st3" d="M448.2,273.1c0.3,0,0.5-0.2,0.5-0.5s-0.2-0.5-0.5-0.5s-0.5,0.2-0.5,0.5S447.9,273.1,448.2,273.1z"/>
<path class="st1" d="M448,272.6c0.1,0,0.1,0,0.1-0.1s0-0.1-0.1-0.1c-0.1,0-0.1,0-0.1,0.1S447.9,272.6,448,272.6z"/>
<path class="st3" d="M444.3,272.9c0.3,0,0.5-0.2,0.5-0.5c0-0.3-0.2-0.5-0.5-0.5c-0.3,0-0.5,0.2-0.5,0.5
	C443.8,272.7,444,272.9,444.3,272.9z"/>
<path class="st1" d="M444.1,272.4c0.1,0,0.1,0,0.1-0.1c0-0.1,0-0.1-0.1-0.1c-0.1,0-0.1,0-0.1,0.1C444,272.4,444,272.4,444.1,272.4z"
	/>
<g class="st11">
	<path class="st2" d="M445.9,275.5l0.7,0.1c0.1,0,0.1-0.1,0.2-0.1c0-0.1-0.1-0.1-0.1-0.2l-0.7-0.1c-0.2,0-0.3-0.2-0.3-0.3
		s0.2-0.3,0.3-0.3c0.1,0,0.1-0.1,0.2-0.1c0-0.1-0.1-0.1-0.1-0.2c-0.3,0-0.6,0.2-0.7,0.5C445.4,275.1,445.6,275.4,445.9,275.5z"/>
</g>
<path class="st44" d="M452.3,275.8c0,0,2.2,0.5,2.9-1.6c0.8-2.1-1.9-2.9-2.6-0.7l-0.6,2.3L452.3,275.8z"/>
<path class="st2" d="M454.8,273c-0.2-0.2-0.4-0.3-0.6-0.3c-0.2,0-0.4,0.1-0.6,0.3c-0.2,0.2-0.3,0.5-0.4,0.8l0,0.2
	c0,0.2,0.3,0.3,0.3,0.1c0.1-0.2,0.1-0.2,0.1-0.2c0-0.1,0.1-0.5,0.3-0.7c0.1-0.2,0.3-0.2,0.4-0.3c0.1,0,0.3,0.1,0.4,0.2
	c0.1,0,0.1,0,0.2,0C454.8,273.1,454.8,273,454.8,273z"/>
<path class="st9" d="M453,275.6c0.2,0,0.4-0.2,0.4-0.4s-0.2-0.4-0.4-0.4s-0.4,0.2-0.4,0.4S452.8,275.6,453,275.6z"/>
<path class="st2" d="M452.8,275.5c0.3,0,0.5-0.1,0.5-0.4c0-0.1,0-0.2,0-0.3c0.1,0.1,0.2,0.2,0.1,0.4c0,0.3-0.3,0.4-0.5,0.4
	c-0.1,0-0.2,0-0.2-0.1C452.8,275.5,452.8,275.5,452.8,275.5z"/>
<path class="st2" d="M445.2,279c0.7,0.5,1.5,0.7,2.3,0.8c0.2,0,0.4,0,0.6,0c0.1,0,0.1,0,0.2,0c0,0,0,0,0,0c0.1,0,0.2,0,0.3,0
	c0,0,0.1,0,0.1,0c0.7-0.1,1.3-0.3,1.7-0.5c0.1,0,0.1,0,0.2,0c0,0.1,0,0.1,0,0.2c-0.5,0.2-1.2,0.5-2.2,0.6c-0.5,0.3-1.4,0.8-2.5,0.7
	c-0.4,0-0.7-0.1-1-0.2L445.2,279z"/>
<path class="st1" d="M445.5,276.2c-0.1,0-0.1,0.1-0.1,0.1c0.2,0.5,0.7,0.9,1.2,0.9c0.6,0,1.1-0.3,1.3-0.7c0-0.1,0-0.1-0.1-0.1
	L445.5,276.2z"/>
<path class="st44" d="M454.5,283c-0.2,3.6-7,6.1-7,6.1s-4.9-3.2-4.7-6.8l1.1-0.3L454.5,283z"/>
<path class="st1" d="M441.9,272.7c-0.1,1.1,0.6,2.1,1.7,2.3c1.1,0.1,2.1-0.6,2.3-1.7c0-0.4,0-0.8-0.2-1.1c0.4-0.1,0.8,0,1,0.1
	c-0.1,0.2-0.2,0.4-0.2,0.6c-0.1,1.1,0.6,2.1,1.7,2.3c1.1,0.1,2.1-0.6,2.3-1.7c0.1-1.1-0.6-2.1-1.7-2.3c-0.8-0.1-1.5,0.3-1.9,0.9
	c-0.2-0.1-0.7-0.2-1.2-0.1c-0.3-0.5-0.8-0.9-1.5-1C443.1,270.8,442.1,271.6,441.9,272.7z M446.8,272.9c0.1-1,1-1.6,2-1.5
	c1,0.1,1.6,1,1.5,2c-0.1,1-1,1.6-2,1.5C447.4,274.8,446.7,273.9,446.8,272.9z M442.2,272.7c0.1-1,1-1.6,2-1.5c1,0.1,1.6,1,1.5,2
	c-0.1,1-1,1.6-2,1.5C442.8,274.6,442.1,273.7,442.2,272.7z"/>
<path class="st3" d="M452.1,286.6l-8.1-0.9c0,0,0.4,0.7,1.5,1.7c0.9,0.9,2,1.7,2,1.7s1.2-0.5,2.5-1.2
	C451.4,287.2,452.1,286.6,452.1,286.6z"/>
<path class="st44" d="M439.8,310.9l-2,0.3l-4.2-0.4c-0.4,0-0.6,0.1-1,0.4l-2.6,2.3c-0.2,0.2-0.2,0.4,0,0.6c0.1,0.2,0.4,0.2,0.6,0.1
	l2.5-1.8l-1.6,1.9c-0.2,0.2-0.1,0.5,0.2,0.6c0.2,0.1,0.3,0,0.4-0.1l2.1-2.1l-1.6,1.6c-0.2,0.2-0.1,0.5,0.1,0.6c0.1,0.1,0.3,0,0.4,0
	l2.3-1.7l-1.5,1.1c-0.2,0.1-0.2,0.4,0,0.5c0.1,0.1,0.2,0.1,0.3,0l2.1-0.9c0.2-0.1,0.4-0.1,0.6,0l0.8,0.4c0.6,0.3,1.4,0.5,2.1,0.5
	h1.3C442.8,314.9,439.8,310.9,439.8,310.9z"/>
<path class="st2" d="M433.8,314.4C433.8,314.4,433.8,314.4,433.8,314.4l1.5-1.1c0,0,0-0.1,0-0.1c0,0-0.1,0-0.1,0l-1.4,1
	C433.7,314.3,433.7,314.3,433.8,314.4C433.8,314.4,433.8,314.4,433.8,314.4z"/>
<path class="st2" d="M432.6,314.3C432.6,314.3,432.6,314.3,432.6,314.3l1.6-1.5c0,0,0-0.1,0-0.1c0,0-0.1,0-0.1,0l-1.5,1.5
	C432.5,314.3,432.5,314.3,432.6,314.3C432.5,314.3,432.6,314.3,432.6,314.3z"/>
<path class="st2" d="M435.7,313.8c-0.5,0.2-1.3,0.6-1.5,0.8c-0.4,0.2-0.5-0.1-0.5-0.1c0,0.1,0,0.3,0.1,0.3c0.1,0.1,0.2,0.1,0.3,0
	l2.1-0.9c0.2-0.1,0.4-0.1,0.6,0l-0.4-0.2C436.2,313.7,435.9,313.7,435.7,313.8z"/>
<path class="st44" d="M439.8,310.9l14-3.2l1.2-10l7.6,1.1l-1.5,9.3c-0.4,2.8-2.5,4.8-5.4,5.2l-14.8,1.6L439.8,310.9z"/>
<path class="st3" d="M443.3,314.9h-16.6c-0.1,0-0.3,0.1-0.3,0.3v0.4c0,0.1,0.1,0.3,0.3,0.3h16.6c0.1,0,0.3-0.1,0.3-0.3v-0.4
	C443.5,315,443.4,314.9,443.3,314.9z"/>
<path class="st28" d="M443.3,314.9h-16.6c-0.1,0-0.3,0.1-0.3,0.3v0.4c0,0.1,0.1,0.3,0.3,0.3h16.6c0.1,0,0.3-0.1,0.3-0.3v-0.4
	C443.5,315,443.4,314.9,443.3,314.9z"/>
<path class="st3" d="M432,314.9h-29c-0.1,0-0.3,0.1-0.3,0.3v0.4c0,0.1,0.1,0.3,0.3,0.3h29c0.1,0,0.3-0.1,0.3-0.3v-0.4
	C432.3,315,432.2,314.9,432,314.9z"/>
<g class="st29">
	<path class="st28" d="M403.4,315.1h29.5c0,0,0.1,0,0.1-0.1c0,0,0-0.1-0.1-0.1h-29.5C403.3,314.9,403.3,314.9,403.4,315.1
		C403.3,315,403.3,315.1,403.4,315.1z"/>
</g>
<path class="st3" d="M432.1,314.9h-4.4c-0.3,0-0.6-0.2-0.7-0.6l-3.7-19.3c-0.1-0.4,0.3-0.8,0.7-0.8h4.4c0.3,0,0.6,0.2,0.7,0.6
	l3.7,19.3C432.9,314.5,432.5,314.9,432.1,314.9z"/>
<path class="st28" d="M432.1,314.9h-4.4c-0.3,0-0.6-0.2-0.7-0.6l-3.7-19.3c-0.1-0.4,0.3-0.8,0.7-0.8h4.4c0.3,0,0.6,0.2,0.7,0.6
	l3.7,19.3C432.9,314.5,432.5,314.9,432.1,314.9z"/>
<path class="st3" d="M431.5,314.9h-28.1c-0.3,0-0.6-0.2-0.7-0.6l-3.7-19.3c-0.1-0.4,0.3-0.8,0.7-0.8h28.1c0.3,0,0.6,0.2,0.7,0.6
	l3.7,19.3C432.2,314.5,431.9,314.9,431.5,314.9z"/>
<path class="st28" d="M415.4,304c0.2,0.4,0,0.7-0.4,0.7c0,0,0,0-0.1,0c0.5,0.5,1.2,0.9,1.8,0.8c0.8,0,1.2-0.7,0.8-1.5
	c-0.4-0.8-1.3-1.5-2.2-1.5c-0.5,0-0.9,0.3-1,0.7C414.8,303.4,415.3,303.6,415.4,304z"/>
<path class="st2" d="M455.9,291.1l-3.9,15.1l-12.2,4.6l14-3.2L455.9,291.1z"/>
<path class="st2" d="M436.6,290.7c1-2.6,1.7-8.4,1.7-8.4c-0.2,0-1.1,0.2-1.1,0.2c-0.2,2.7-2.4,8.7-2.7,8.9L436.6,290.7z"/>
<path class="st3" d="M450.8,267.4c0,0,0.2,4.1,2.1,5.7c0,0,0.2-1.1,1.6-0.9c0,0,0.1-0.3,0.4-1.5c0.2-1.2-0.6-6.3-6.2-5.9
	c0,0-1.8-0.4-4.3,1.8c-2.5,2.1-1,4.5-1,4.5S447.6,270.4,450.8,267.4z"/>
<path class="st45" d="M278.5,392.4h-60.4v159.8h60.4V392.4z"/>
<path class="st19" d="M218.1,390.5h-6.3v161.8h6.3V390.5z"/>
<path class="st19" d="M438.8,390.5H211.8v14.8h226.9V390.5z"/>
<path class="st19" d="M254.6,406.5c-0.5-3.8-2.8-6.9-5.8-8.3l0.7-0.9h-4.7l0,0c-0.4,0-0.7,0-1.1,0.1l-49.7,7
	c-5.5,0.8-10,5.1-11.4,11.1l-32.2,136.7h7.4l31.8-134.7c0.7-2.8,2.8-4.9,5.4-5.3l49.7-7c1.4-0.2,2.7,0.9,2.9,2.5l20,144.5h6.7
	L254.6,406.5z"/>
<path class="st46" d="M162.3,552.2h-7.4l32.2-136.7c1.4-6,5.9-10.3,11.4-11.1l49.7-7c5.3-0.7,10.1,3.2,10.9,9.1l20.2,145.7h-7.2
	l-20-144.5c-0.2-1.6-1.5-2.6-2.9-2.5l-49.7,7c-2.6,0.4-4.8,2.4-5.4,5.3L162.3,552.2z"/>
<path class="st45" d="M235.4,453.3h-67.8c-2.4,0-4.4-2-4.4-4.4c0-2.4,2-4.4,4.4-4.4h67.8c2.4,0,4.4,2,4.4,4.4
	C239.8,451.4,237.8,453.3,235.4,453.3z"/>
<path class="st30" d="M287.8,520.2l30.7,16.6l-7.9-15.2c-1.3-2.5-1.4-5.5-0.2-8.1l4.5-9.9l-18.2-5.3L287.8,520.2z"/>
<g class="st11">
	<g class="st11">
		<g class="st11">
			<g class="st11">
				<path class="st2" d="M297,510.6l0.1-0.2c0.5-1.2,1.7-1.7,2.8-1.3l11.1,3l1.1-2.8l-16.4-8.8l-7.8,19l14.3,5.4l-3.5-4
					C296.3,518,295.6,514,297,510.6z"/>
			</g>
		</g>
	</g>
</g>
<path class="st10" d="M288.4,513.6l-6.2,12.1c-1,2-0.2,4.4,1.7,5.4l41.2,21c0.8,0.4,1.8,0.1,2.2-0.7c1.5-2.9,0.9-6.4-1.3-8.7
	l-7.7-7.8l-7.1-15.2c-0.7-1.6-2.5-2.4-4.2-2l-7.5,1.8c-1.1,0.3-2.3-0.1-3.1-0.8l-5.6-5.4C290.1,512.4,288.9,512.6,288.4,513.6z"/>
<path d="M284,531l41.2,21c0.8,0.4,1.8,0.1,2.2-0.7c0.3-0.5,0.5-1,0.6-1.6l-46-23.5C281.4,528.1,282.2,530.1,284,531z"/>
<path class="st1" d="M308.5,524.4c-0.1,0-0.2-0.1-0.2-0.2c-0.1-0.2,0-0.5,0.3-0.5l3.9-1.4c0.2-0.1,0.5,0,0.5,0.3
	c0.1,0.2,0,0.5-0.3,0.5l-3.9,1.4C308.7,524.4,308.6,524.4,308.5,524.4z"/>
<path class="st1" d="M309.7,526.9c-0.1,0-0.2-0.1-0.2-0.2c-0.1-0.2,0-0.5,0.3-0.5l3.9-1.4c0.2-0.1,0.5,0,0.5,0.3
	c0.1,0.2,0,0.5-0.3,0.5l-3.9,1.4C309.9,526.9,309.8,526.9,309.7,526.9z"/>
<path class="st1" d="M310.9,529.4c-0.1,0-0.2-0.1-0.2-0.2c-0.1-0.2,0-0.5,0.3-0.5l3.9-1.4c0.2-0.1,0.5,0,0.5,0.3
	c0.1,0.2,0,0.5-0.3,0.5l-3.9,1.4C311.2,529.5,311,529.5,310.9,529.4z"/>
<path class="st10" d="M247.7,412.3h93c9.9,0,16.3,10.5,11.7,19.3l-40.2,77.6l-17.2-7.4l18.4-57.7h-52.7L247.7,412.3z"/>
<g class="st18">
	<g class="st18">
		<g class="st18">
			<g class="st18">
				<path class="st12" d="M247.7,412.3h86.6c4.1,0,6.8,4.1,5.3,7.9l-1.2,2.7l0.4,0.6c2.2,3.1,3.1,8,3.8,12.1l1.9,10.6
					c0,0.2-0.1,0.4-0.3,0.5c0,0,0,0-0.1,0c-0.2,0-0.4-0.1-0.4-0.3l-1.9-10.6c-0.7-4-1.7-8.9-3.8-11.9h0l-34.7,81.5l-8.2-3.5
					l18.4-57.7h-52.7L247.7,412.3z"/>
			</g>
		</g>
	</g>
</g>
<path class="st30" d="M341.1,540.6l35.5,0.9l-14.2-10.1c-2.3-1.7-3.8-3.9-4.9-7.1l-2.2-10.8l-22,0.1L341.1,540.6z"/>
<g class="st11">
	<g class="st11">
		<g class="st11">
			<g class="st11">
				<path class="st2" d="M345,527.7v-0.2c-0.1-1.3,0.8-2.3,2-2.5l10.3-1.6l-0.5-2.2h-21.4l5.5,18.8l15.5-1.7l-5.1-2
					C347.8,534.7,345.4,531.4,345,527.7z"/>
			</g>
		</g>
	</g>
</g>
<path class="st10" d="M338.6,534.3v13.8c0,2.2,1.8,4.1,4.1,4.1h47.1c0.9,0,1.7-0.8,1.7-1.7c0-3.3-2.1-6.2-5.3-7.3l-10.6-3.5
	l-13.5-10.5c-1.4-1.1-3.3-1-4.7,0.1l-6,5.1c-0.9,0.8-2.1,1-3.2,0.7l-7.6-2.3C339.6,532.5,338.6,533.3,338.6,534.3z"/>
<path d="M342.7,552.2h47.1c0.9,0,1.7-0.8,1.7-1.7c0-0.6-0.1-1.2-0.2-1.7h-52.5C339,550.8,340.7,552.2,342.7,552.2z"/>
<path class="st1" d="M361.8,534.8c-0.1,0-0.2-0.1-0.3-0.1c-0.2-0.2-0.2-0.4,0-0.6l2.9-3.1c0.2-0.2,0.4-0.2,0.6,0
	c0.2,0.2,0.2,0.4,0,0.6l-2.8,3.1C362.1,534.8,362,534.8,361.8,534.8z"/>
<path class="st1" d="M364.1,536.6c-0.1,0-0.2-0.1-0.3-0.1c-0.2-0.2-0.2-0.4,0-0.6l2.9-3.1c0.2-0.2,0.4-0.2,0.6,0
	c0.2,0.2,0.2,0.4,0,0.6l-2.9,3.1C364.3,536.5,364.2,536.6,364.1,536.6z"/>
<path class="st1" d="M366.3,538.3c-0.1,0-0.2-0.1-0.3-0.1c-0.2-0.2-0.2-0.4,0-0.6l2.9-3.1c0.2-0.2,0.4-0.2,0.6,0
	c0.2,0.2,0.2,0.4,0,0.6l-2.8,3.1C366.6,538.3,366.5,538.3,366.3,538.3z"/>
<path class="st10" d="M218.4,431.8l1.8,1.9c6.4,6.7,15.2,10.5,24.4,10.7l67.3,0.9l24,77.5h21.6l-16.9-92.5
	c-1.3-7.1-7.1-12.5-14.2-13.3l-61.5-7.1L218.4,431.8z"/>
<path d="M218.4,431.8l2.3,5.1l47.7-22.9l-3.5-4.1L218.4,431.8z"/>
<g class="st18">
	<g class="st18">
		<g class="st18">
			<g class="st18">
				<path class="st12" d="M233.9,424.5c5.7,8.1,17.8,11.1,27.1,11.2l53.6,1.6c3.7,0.1,6.8,2.6,7.8,6.2l21.3,79.4h-7.8l-24-77.5
					l-64.7-0.8c-10.9-0.1-21.3-4.7-28.8-12.6L233.9,424.5z"/>
			</g>
		</g>
	</g>
</g>
<path class="st19" d="M310.8,453.3h-95.1c-2.4,0-4.4-2-4.4-4.4c0-2.4,2-4.4,4.4-4.4h95.1c2.4,0,4.4,2,4.4,4.4
	C315.2,451.4,313.2,453.3,310.8,453.3z"/>
<g class="st18">
	<g class="st18">
		<g class="st18">
			<g class="st18">
				<path class="st12" d="M172.4,443.4l57.6,0l-0.3,1h-57.1L172.4,443.4z"/>
			</g>
		</g>
	</g>
</g>
<path class="st45" d="M389.5,506.1h-6.3v46.1h6.3V506.1z"/>
<path class="st45" d="M505.9,390.5h-53v161.7h53V390.5z"/>
<path class="st19" d="M452.9,390.5h-6.3v161.8h6.3V390.5z"/>
<path class="st19" d="M384.6,506.1h-6.3v46.1h6.3V506.1z"/>
<path class="st19" d="M446.6,390.5h-68.3v142.9h68.3V390.5z"/>
<g class="st11">
	<g class="st11">
		<g class="st11">
			<g class="st11">
				<path class="st2" d="M388.7,522.7h48.7V411.4h-48.7V522.7z M407.7,412.2c0.9,2.1,3,3.5,5.4,3.5c2.4,0,4.5-1.5,5.4-3.5h18.2v36.1
					h-47.2v-36.1H407.7z M413.1,452.6c2.4,0,4.5-1.5,5.4-3.5h18.2v36.1h-47.2V449h18.2C408.6,451.1,410.7,452.6,413.1,452.6z
					 M389.5,522v-36.1h18.2c0.9,2.1,3,3.5,5.4,3.5c2.4,0,4.5-1.5,5.4-3.5h18.2V522H389.5z"/>
			</g>
		</g>
	</g>
</g>
<g class="st18">
	<g class="st18">
		<g class="st18">
			<g class="st18">
				<path class="st12" d="M505.9,390.5h-53v0.8h53V390.5z"/>
			</g>
		</g>
	</g>
</g>
<path class="st10" d="M421.4,366.2c0-5.7,0.2-10.1-2.3-18c-2.5-7.9-2.8-15.3-2.8-16.5c0-1.2,0-1.4,0.3-2c0.3-0.6,0-1.4,0-1.4
	l-0.4-1.1h0.2v-1c0,0,0.2-1.1-0.9-1.1h-4.8c-1.1,0-0.9,1.1-0.9,1.1v1h0.2l-0.4,1.1c0,0-0.3,0.8,0,1.4c0.3,0.6,0.3,0.8,0.3,2
	c0,1.2-0.3,8.6-2.8,16.5c-2.5,7.9-2.3,12.3-2.3,18c0,5.7,0,14.7,0,14.7s-0.1,3.1,2.9,3.1h10.8c3,0,2.9-3.1,2.9-3.1
	S421.4,371.9,421.4,366.2z"/>
<path class="st10" d="M443.1,364.1c0-0.3-0.9-0.6-2.5-0.8c-1.6-0.2-3.7-0.3-6-0.3s-4.4,0.1-6,0.3c-1.7,0.2-2.5,0.5-2.5,0.8
	c0,0,0,0.1,0,0.1c0,0,0,0,0,0c0.1,0.3,0.5,3.7,1,7.2c0.6,4.3,1.2,9.2,1.4,9.9c0,0.1,0.1,0.3,0.1,0.4c0.2,1.2,0.5,2.4,6,2.4h0.2
	c5.4,0,5.6-1.2,5.8-2.4c0-0.1,0.1-0.3,0.1-0.4c0.2-0.7,0.8-5.6,1.4-9.9C442.6,367.9,443,364.6,443.1,364.1
	C443.1,364.2,443.1,364.2,443.1,364.1C443.1,364.2,443.1,364.2,443.1,364.1z"/>
<path class="st45" d="M234.4,387.3c0,1.8,1.5,3.3,3.3,3.3h274.1c1.8,0,3.3-1.5,3.3-3.3c0-1.8-1.5-3.3-3.3-3.3H237.6
	C235.8,384,234.4,385.5,234.4,387.3z"/>
<path class="st19" d="M200.7,387.3c0,1.8,1.5,3.3,3.3,3.3h249.9c1.8,0,3.3-1.5,3.3-3.3c0-1.8-1.5-3.3-3.3-3.3H204
	C202.2,384,200.7,385.5,200.7,387.3z"/>
<path class="st7" d="M291.3,373.6l5.9,5c0.8,0.7,0.5,1.9-0.4,2.3l-1.9,0.7c-0.7,0.3-1.6,0.2-2.3-0.1l-9.6-4.8l9.2-3"/>
<g class="st11">
	<g class="st11">
		<g class="st11">
			<g class="st11">
				<path class="st2" d="M291.3,373.6l5.9,5c0.8,0.7,0.5,1.9-0.4,2.3l-1.9,0.7c-0.7,0.3-1.6,0.2-2.3-0.1l-9.6-4.8"/>
			</g>
		</g>
	</g>
</g>
<path class="st7" d="M277.8,373l9.7-2.1c1.3-0.3,2.7-0.1,3.8,0.6l8,4.6c0.6,0.3,0.7,1,0.4,1.6c-0.3,0.5-0.8,0.7-1.4,0.5
	c-2.1-0.8-7.6-2.8-7.6-2.8l-6.9,1.9c-0.3,0.1-0.4,0.3-0.5,0.5c-0.1,0.4,0.2,0.9,0.6,0.9l4,0.8c1.3,0.3,2.2,1.5,2.1,2.8
	c0,0.3-0.3,0.5-0.6,0.6l-18.5,0.9l-5.6-11.5L277.8,373z"/>
<path class="st9" d="M216.9,339l-24.1,39.4c-3.5,5.7,0.6,12.9,7.2,12.9H225L216.9,339z"/>
<path class="st7" d="M257,292.7l5.6,11.5c0.3,0.6,0.8,1,1.5,1l1.6,0.1c1,0.1,1.9,0.8,2.1,1.8l0,0c0.3,1.1-0.2,2.2-1.2,2.7
	c-0.7,0.4-1.5,0.8-1.5,0.8l0.6,7c0.3,3.6-2.3,6.8-5.8,7.3l-3.6,0.5l-7.2,16.5l-16.7-15.4l3.2-10.9l0.1-20.1L257,292.7z"/>
<path class="st3" d="M227.1,297.3c0.8-4.5,3-6.6,7-7.5c0.6-0.1,1.1-0.8,1.2-1.4c0.4-1.6,1.7-4.4,6-5.5c3.4-0.8,5.7,0.5,7.1,1.7
	c0.8,0.7,2,0.7,2.8,0c1.2-1,3.1-2,5.9-1.2c5.3,1.5,5.7,9.7,1.2,11.8l-3.7,1.5c-0.7,0.3-1.1,1-0.9,1.8c0.1,0.7,0.1,1.4,0,2.1
	c-0.4,2.4-2.3,4.1-4.6,4.6c-0.5,0.1-0.8,0.7-0.7,1.2l1.3,4.2c0.1,0.4,0,1-0.3,1.3c-0.5,0.5-1.3,0.3-1.7-0.2L246,309
	c-0.6-0.9-1.7-1.3-2.7-1.1l-1.2,0.2c-0.6,1.9-1.1,4.1-1.6,5.7c-0.4,1.4-0.9,2.5-1.5,3.2c-1.2,1.7-2.6,1.7-3.9,0.3
	c0,0-8.2-9.1-8.2-17.8C226.9,298.8,227,298,227.1,297.3z"/>
<g class="st11">
	<g class="st11">
		<g class="st11">
			<g class="st11">
				<path class="st2" d="M239,317.1l3.2-0.6c0.1,0,0.3,0,0.4,0.1c1.3,0.2,3.3,0.4,4.7-0.5c0.2-0.1,0.3-0.4,0.1-0.6
					c-0.1-0.2-0.4-0.3-0.6-0.1c-0.2,0.1-0.5,0.2-0.7,0.3l-5.6-1.8C240.1,315.3,239.6,316.3,239,317.1z"/>
			</g>
		</g>
	</g>
</g>
<path class="st9" d="M262.3,301.1l-18.2,7.2l0.4,0.9l18.2-7.2L262.3,301.1z"/>
<path class="st7" d="M243.7,307.2c0,0-2.2-2.4-4.6,0.1c-2.8,2.9,1.1,10.4,7.1,8.4c3.1-1,1.8-2.5,0.3-4.6L243.7,307.2z"/>
<g class="st8">
	<g class="st8">
		<g class="st8">
			<g class="st8">
				<path class="st6" d="M239.7,309.3c0.4-0.6,0.9-1,1.5-1.1c0.6-0.1,1.2,0.1,1.8,0.5c0.6,0.4,1.1,1.1,1.5,1.9l0.3,0.7
					c0.1,0.2,0,0.4-0.2,0.5c-0.2,0.1-0.4,0-0.5-0.2l-0.3-0.7c-0.1-0.2-0.6-1.1-1.2-1.6c-0.4-0.3-0.8-0.4-1.2-0.4
					c-0.3,0.1-0.7,0.3-1,0.8c-0.1,0.2-0.4,0.2-0.5,0.1C239.7,309.8,239.6,309.5,239.7,309.3z"/>
			</g>
		</g>
	</g>
</g>
<path class="st9" d="M264.3,306.4c-0.2,0-0.4-0.1-0.4-0.3l-3.8-8.2c-0.1-0.2,0-0.5,0.2-0.7c0.2-0.1,0.5,0,0.7,0.2l3.8,8.2
	c0.1,0.2,0,0.5-0.2,0.7C264.5,306.4,264.4,306.4,264.3,306.4z"/>
<g class="st8">
	<g class="st8">
		<g class="st8">
			<g class="st8">
				<path class="st6" d="M262.7,314.1c1.5,0.3,2.7-0.1,2.7-0.1l-0.1-1c0,0-1.8,0.6-3.4-0.2c-0.2-0.1-0.5,0-0.6,0.2
					c-0.2,0.3-0.1,0.6,0.2,0.7C261.9,313.9,262.3,314.1,262.7,314.1z"/>
			</g>
		</g>
	</g>
</g>
<path class="st7" d="M309.9,357.1l1-11.5c0-0.4,0.4-0.8,0.8-0.9c1.2-0.3,2.4,0.7,2.3,1.9l-0.2,4.6L309.9,357.1z"/>
<g class="st11">
	<g class="st11">
		<g class="st11">
			<g class="st11">
				<path class="st2" d="M309.9,357.1l1-11.5c0-0.4,0.4-0.8,0.8-0.9c1.2-0.3,2.4,0.7,2.3,1.9l-0.2,4.6L309.9,357.1z"/>
			</g>
		</g>
	</g>
</g>
<path class="st7" d="M317.9,346.1l5.2-9.7c0.4-0.7,1.3-1,2-0.6c0.7,0.4,1,1.2,0.7,1.9l-4.6,10.7l5.3-8.7c0.4-0.6,1.1-0.8,1.7-0.5
	c0.6,0.3,0.9,1.1,0.5,1.8l-5.1,9.6l4.6-5.7c0.2-0.3,0.7-0.5,1.2-0.2c0.4,0.3,0.4,0.8,0.2,1.2l-4.4,8.6l-0.6,4.3
	c-0.6,4-2.7,7.7-5.9,10.2l-0.2,0.1l-7.9,11.5l-7.4-11.8l4.2-4l5.5-18.2l5.8-11.6c0.3-0.6,1.1-0.9,1.7-0.6c0.6,0.3,0.9,1,0.7,1.6
	L317.9,346.1z"/>
<path class="st9" d="M215.6,426.7l2.8,5.1l46.4-21.1l-12.6-30.4l19.6-21.7l-0.9-2.8c-1.5-4.6-4.7-8.5-8.8-10.9l-4.8-2.9l-1.4-5.3
	l-22.5-14.1l-3,5.6c-4.5,1.4-8.4,4-11.2,7.5c-2.8,3.5-4.6,7.9-5,12.5l-4,53.1C209.4,410.2,211.3,419,215.6,426.7z"/>
<g class="st11">
	<g class="st11">
		<g class="st11">
			<g class="st11">
				<path class="st2" d="M264.7,410.8l-13.5-32.5c-0.3-0.7-1.4-0.4-1.2,0.4l8.8,34.8L264.7,410.8z"/>
			</g>
		</g>
	</g>
</g>
<g class="st11">
	<g class="st11">
		<g class="st11">
			<g class="st11">
				<path class="st2" d="M257.2,342.5c0.2,0,0.3-0.1,0.4-0.3c0.1-0.2,0-0.5-0.2-0.7l-19.8-11.1c-0.2-0.1-0.5,0-0.7,0.2
					c-0.1,0.2,0,0.5,0.2,0.7l19.8,11.1C257,342.5,257.1,342.5,257.2,342.5z"/>
			</g>
		</g>
	</g>
</g>
<g class="st11">
	<g class="st11">
		<g class="st11">
			<g class="st11">
				<path class="st2" d="M212.7,358.6l-6.7,32.7h4.9l2.4-32.6C213.3,358.4,212.8,358.3,212.7,358.6z"/>
			</g>
		</g>
	</g>
</g>
<path class="st19" d="M209,339.8c-0.6-2.5-2.9-4.3-5.5-4.3h-45.7c-3.7,0-6.4,3.4-5.5,7l23.3,102.1h59.2L209,339.8z"/>
<path class="st45" d="M200.9,339.8c-0.6-2.5-2.9-4.3-5.5-4.3h-45.7c-3.7,0-6.4,3.4-5.5,7l24.5,102.1h58.1L200.9,339.8z"/>
<path class="st19" d="M297.7,406.5c-0.5-3.8-2.8-6.9-5.8-8.3l0.7-0.9h-4.7l0,0c-0.4,0-0.7,0-1.1,0.1l-49.7,7
	c-5.5,0.8-10,5.1-11.4,11.1l-32.2,136.7h7.4l31.8-134.7c0.7-2.8,2.8-4.9,5.4-5.3l49.7-7c1.4-0.2,2.7,0.9,2.9,2.5l20,144.5h6.7
	L297.7,406.5z"/>
<path class="st46" d="M205.4,552.2H198l32.2-136.7c1.4-6,5.9-10.3,11.4-11.1l49.7-7c5.3-0.7,10.1,3.2,10.9,9.1l20.2,145.7h-7.2
	l-20-144.5c-0.2-1.6-1.5-2.6-2.9-2.5l-49.7,7c-2.6,0.4-4.8,2.4-5.4,5.3L205.4,552.2z"/>
<g class="st11">
	<g class="st11">
		<g class="st11">
			<g class="st11">
				<path class="st2" d="M256.3,325.5l-2.6,0.3c-0.7,0.1-0.9,1-0.3,1.3l1.8,1.1L256.3,325.5z"/>
			</g>
		</g>
	</g>
</g>
<g class="st11">
	<g class="st11">
		<g class="st11">
			<g class="st11">
				<path class="st2" d="M452.9,390.5H303.6v0.8h142.6v142.1h0.8V391.3h5.9V390.5z"/>
			</g>
		</g>
	</g>
</g>
<path class="st9" d="M252.1,380.3l12.6,30.4c2.3,3.9,6.3,5.9,10.3,5.9c3.4,0,6.7-1.4,9.2-4.3l32.1-38.6l-9.5-8.2L281.2,387
	l-9.5-28.3L252.1,380.3z"/>
<g class="st11">
	<g class="st11">
		<g class="st11">
			<g class="st11">
				<path class="st2" d="M281.2,386.9l1.3,3.6c0.3,1,1.7,1,2.1,0.1l4.9-10.8L281.2,386.9z"/>
			</g>
		</g>
	</g>
</g>
<g class="st11">
	<g class="st11">
		<g class="st11">
			<g class="st11">
				<path class="st2" d="M219.1,335.7l0,15.4c0,11.5,1,23,3,34.3l4.9,27.2l-15.8-64.1L219.1,335.7z"/>
			</g>
		</g>
	</g>
</g>
<text transform="matrix(1 0 0 1 416.0792 101.0593)" class="st47 st48 st49"> </text>
<text transform="matrix(1 0 0 1 416.6374 98.5873)" class="st50 st48 st49"> </text>
<image style="overflow:visible;opacity:0.33;" width="2363" height="2363" xlink:href="../../../Applications/XAMPP/xamppfiles/htdocs/Deposit/img/381910.png"  transform="matrix(6.195510e-02 0 0 6.195510e-02 1145.355 20.2773)">
</image>
<image style="overflow:visible;" width="2363" height="2363" xlink:href="../../../Applications/XAMPP/xamppfiles/htdocs/Deposit/img/381910.png"  transform="matrix(6.195510e-02 0 0 6.195510e-02 1139.6525 16.5935)">
</image>
<image style="overflow:visible;" width="1167" height="1167" xlink:href="../Library/Mobile Documents/com~apple~CloudDocs/Workshop Design/2pkl Team/logo-around-tranp.png"  transform="matrix(0.1414 0 0 0.1414 26.4098 24.6182)">
</image>
<g>
	<defs>
		<path id="SVGID_1_" d="M908.5,307.1h-60.6c-4.1,0-7.7,2.9-8.4,7c-0.8,4.1-4.3,7-8.4,7h-78.3c-4.1,0-7.7-2.9-8.4-7
			c-0.8-4.1-4.3-7-8.4-7h-60.6c-10.7,0-19.4,8.7-19.4,19.4v492.7c0,10.7,8.7,19.4,19.4,19.4h233.3c10.7,0,19.4-8.7,19.4-19.4V326.6
			C928,315.8,919.3,307.1,908.5,307.1z"/>
	</defs>
	<clipPath id="SVGID_2_">
		<use xlink:href="#SVGID_1_"  style="overflow:visible;"/>
	</clipPath>
	<g style="clip-path:url(#SVGID_2_);">
		
			<image style="overflow:visible;" width="371" height="698" xlink:href="171067156_278017727232801_1206390781889764640_n.png"  transform="matrix(0.743 0 0 0.764 652.4563 307.9825)">
		</image>
	</g>
</g>
</svg>
